<?xml version="1.0" standalone="no"?>
<!DOCTYPE svg PUBLIC "-//W3C//DTD SVG 20010904//EN"
 "http://www.w3.org/TR/2001/REC-SVG-20010904/DTD/svg10.dtd">
<svg version="1.0" xmlns="http://www.w3.org/2000/svg"
 width="329.000000pt" height="329.000000pt" viewBox="0 0 329.000000 329.000000"
 preserveAspectRatio="xMidYMid meet">
<metadata>
Created by potrace 1.11, written by Peter Selinger 2001-2013
</metadata>
<g transform="translate(0.000000,329.000000) scale(0.100000,-0.100000)"
fill="#000000" stroke="none">
<path d="M1405 3274 c-602 -91 -1106 -504 -1310 -1073 -33 -91 -64 -217 -80
-320 -14 -86 -14 -411 -1 -476 30 -148 41 -192 68 -275 186 -575 694 -1011
1291 -1109 136 -22 384 -25 507 -5 432 69 780 267 1045 595 173 212 301 492
341 744 2 17 9 55 13 85 13 79 10 340 -5 440 -66 438 -289 815 -639 1079 -223
168 -435 258 -745 316 -72 14 -394 13 -485 -1z m440 -108 c411 -59 777 -276
1026 -606 106 -140 224 -381 254 -516 2 -10 11 -50 19 -89 30 -133 40 -335 24
-480 -63 -575 -464 -1081 -1009 -1273 -78 -28 -87 -29 -91 -14 -5 19 -1 130 8
212 7 61 -5 48 179 205 192 165 247 219 272 270 43 83 108 175 189 265 67 74
86 106 160 260 98 202 121 271 105 306 -19 42 -47 32 -112 -41 -23 -26 -45
-41 -65 -43 -37 -4 -72 -29 -102 -73 -14 -20 -36 -37 -54 -42 -38 -10 -93 -45
-135 -86 -18 -17 -40 -32 -48 -32 -8 -1 -19 -3 -25 -4 -5 -1 -13 -3 -17 -4
-22 -3 -76 -64 -109 -121 -43 -76 -85 -131 -134 -178 -35 -33 -311 -222 -325
-222 -4 0 -43 -21 -86 -47 -89 -53 -102 -73 -121 -199 -12 -77 -21 -79 -33 -9
-4 22 -8 45 -9 50 -2 6 -6 27 -10 47 -11 50 -43 80 -145 135 -137 74 -332 207
-387 265 -50 52 -124 158 -124 177 0 5 -22 32 -48 59 -36 37 -55 49 -76 48
-21 -1 -41 11 -74 42 -47 43 -115 82 -144 82 -9 0 -19 9 -23 19 -14 45 -94 99
-137 92 -4 0 -24 20 -45 45 -39 48 -73 67 -97 58 -39 -15 -26 -81 48 -236 29
-62 70 -148 90 -190 20 -42 51 -92 69 -110 101 -104 198 -238 240 -328 8 -20
46 -63 84 -96 102 -91 231 -203 295 -257 65 -54 67 -62 72 -230 3 -111 13
-105 -104 -59 -202 78 -363 185 -526 347 -214 213 -352 463 -415 748 -29 131
-34 187 -33 347 2 165 6 207 33 323 84 358 286 669 576 888 229 172 450 257
785 302 36 5 288 -1 335 -7z"/>
<path d="M1390 2929 c0 -11 14 -52 31 -90 113 -258 117 -477 14 -679 -22 -42
-88 -139 -216 -317 -112 -154 -150 -256 -144 -383 4 -88 6 -98 33 -167 102
-267 388 -418 657 -348 165 43 286 138 365 286 59 111 75 223 53 381 -37 267
-141 553 -298 817 -114 191 -312 422 -419 490 -58 36 -76 39 -76 10z m220
-286 c115 -130 278 -433 350 -649 62 -189 83 -298 84 -449 1 -125 0 -132 -28
-188 -77 -152 -205 -230 -368 -223 -246 11 -420 243 -358 477 16 60 55 135
146 281 137 218 177 328 176 488 0 92 -16 181 -47 263 -18 44 -18 47 -6 47 5
0 28 -21 51 -47z"/>
<path d="M1725 2107 c-165 -135 -314 -425 -331 -642 -5 -56 -2 -81 15 -125 51
-135 201 -204 338 -156 142 50 213 209 153 342 -10 25 -44 81 -75 124 -31 43
-65 101 -77 127 -37 83 -32 195 16 307 22 54 8 62 -39 23z m-48 -167 c-29
-111 -11 -180 85 -338 51 -83 53 -90 53 -158 0 -62 -3 -75 -28 -107 -108 -142
-327 -67 -327 112 0 112 57 291 132 418 42 70 90 135 95 129 2 -2 -3 -27 -10
-56z"/>
</g>
</svg>
