<svg xmlns="http://www.w3.org/2000/svg" viewBox="0 0 398.14 74.67"><defs><style>.cls-1{fill:none;stroke:#000;stroke-miterlimit:10;stroke-width:0.54px;}.cls-2{font-size:29.08px;font-family:OpenSans-CondensedLight, Open Sans;}.cls-3{fill:#202020;}</style></defs><title>CJP-logo</title><g id="Layer_2" data-name="Layer 2"><g id="Underline"><line class="cls-1" x1="2.17" y1="52.38" x2="398.14" y2="52.38"/></g><g id="Photography"><text class="cls-2" transform="translate(244.22 52.23) scale(1.08 1)">PHOTOGRAPHY</text></g><g id="Colby"><g id="Colby-2" data-name="Colby"><path class="cls-3" d="M21.14,19.46a.15.15,0,0,1-.12,0c-.46-.1-1.09-.54-.49-1.48a.43.43,0,0,1,.1-.1c.46-.13.89-.32,1.33-.5.22-.09.43-.2.65-.3l.32-.15.08,0,.26-.15a15.23,15.23,0,0,0,1.87-1.21,16.36,16.36,0,0,0,5.38-7,16.89,16.89,0,0,0,.66-2.12,4.69,4.69,0,0,0,.08-2,1.43,1.43,0,0,0-.9-1.15,6.47,6.47,0,0,0-2-.31,11.34,11.34,0,0,0-4.28.75,7.91,7.91,0,0,0-1.89,1.05c-.63.45-1.28.87-1.89,1.34A49.48,49.48,0,0,0,7.61,19.44,38.16,38.16,0,0,0,1.74,36.68a16.59,16.59,0,0,0,1.33,8.73,9.82,9.82,0,0,0,6.72,5,15.68,15.68,0,0,0,8.78-.69,29.05,29.05,0,0,0,4.17-1.85,22.57,22.57,0,0,0,3.65-2.65c2.33-2,4.49-4.27,6.72-6.48.56-.55,1.12-1.11,1.7-1.65l.22-.2c2.13,2.55.56.73,1,1.3l0,0-.1.08-.42.36-.84.77c-.55.53-1.09,1.08-1.59,1.64a9.26,9.26,0,0,0-1.24,1.77,6.22,6.22,0,0,0-.83,4A4.35,4.35,0,0,0,33.2,50a5.06,5.06,0,0,0,3.9.47,5,5,0,0,0,1.76-.91,9.13,9.13,0,0,0,.69-.73,9.36,9.36,0,0,0,.57-.86,10.59,10.59,0,0,0,1.27-4.1,10.85,10.85,0,0,0-.74-4.24,4.64,4.64,0,0,0-.47-.86,1.87,1.87,0,0,0-.6-.54,4.68,4.68,0,0,0-1.89-.5,3.58,3.58,0,0,0-.94,0,.93.93,0,0,0-.25.09c-.11.1-.25.19-.35.28-.37.44-.41.51-.09,1h0a4,4,0,0,0,1.21,1,6.47,6.47,0,0,0,.76.37,4.84,4.84,0,0,0,.82.24,11.67,11.67,0,0,0,3.53.41,12,12,0,0,0,3.47-.71A15.18,15.18,0,0,0,49,38.67c4-2.87,6.71-7.24,8.76-11.77a53.2,53.2,0,0,0,4-14.43A40.26,40.26,0,0,0,62.17,5a4.74,4.74,0,0,0-1.1-2.94,1.68,1.68,0,0,0-1.14-.43,2.74,2.74,0,0,0-1.34.52,8.21,8.21,0,0,0-2.24,2.58,22.19,22.19,0,0,0-1.52,3.34c-.9,2.38-1.8,4.76-2.62,7.15a100.21,100.21,0,0,0-4,14.6,44.6,44.6,0,0,0-.78,7.45,20.35,20.35,0,0,0,1,7.22,9.6,9.6,0,0,0,4.37,5.32A5.24,5.24,0,0,0,56,50.5a8,8,0,0,0,3.28-1.05,33.06,33.06,0,0,0,10.85-10,48.18,48.18,0,0,0,6.26-13.58A67.56,67.56,0,0,0,79,11c.08-1.26.16-2.52.16-3.78l0-.94c0-.31,0-.65,0-.89a4.22,4.22,0,0,0-.42-1.53,3.29,3.29,0,0,0-.92-1.18,1.4,1.4,0,0,0-1.13-.27,6.13,6.13,0,0,0-2.56,2,26.67,26.67,0,0,0-3.66,6.4,68.62,68.62,0,0,0-2.57,7.09,108.31,108.31,0,0,0-3.36,14.77c-.39,2.5-.68,5-.84,7.51A32,32,0,0,0,64,47.58c.07.28.12.58.2.86s.18.57.27.76a2.9,2.9,0,0,0,1,1,3.86,3.86,0,0,0,1.46.55,4.54,4.54,0,0,0,.81.06l.91,0A6.81,6.81,0,0,0,71.88,50a5.5,5.5,0,0,0,2-2.54c.1-.26.23-.56.31-.81a4,4,0,0,0,.14-.76,13.67,13.67,0,0,0,0-1.79,35,35,0,0,1-.17-3.91,4.31,4.31,0,0,1,.63-2.25,4.05,4.05,0,0,1,.49-.53,4.87,4.87,0,0,1,.64-.36,3.07,3.07,0,0,1,1.29-.19A3.41,3.41,0,0,1,79.36,38a3.19,3.19,0,0,0,.56.47.34.34,0,0,0,.32,0s.31-.17.58-.34l.44-.28a2.54,2.54,0,0,1,.69-.3,1.36,1.36,0,0,1,.47,0l.24,0,.16,0a2.44,2.44,0,0,1,.65.29,1.92,1.92,0,0,1,.87,1.35,4.07,4.07,0,0,1,0,1.21A6.69,6.69,0,0,1,84,41.56a9.32,9.32,0,0,1-.91,1.89c-.72,1.15-1.57,2.15-2.3,3.13a4.89,4.89,0,0,0-1.29,2.9,1.54,1.54,0,0,0,1.76,1.44,5.37,5.37,0,0,0,3-1.15,10.32,10.32,0,0,0,2.38-2.58,11.39,11.39,0,0,0,.86-1.57l.79-1.73,1.58-3.46.79-1.73.1-.22a.36.36,0,0,0,0-.09.33.33,0,0,0,0-.13.19.19,0,0,0,0-.08l-.06-.07s.07,0,.15-.18a1.8,1.8,0,0,1,.12-.23c0-.17,0,0,.07.05a1.09,1.09,0,0,0,.22.31c.07.07,0,0,0,0a2,2,0,0,0-.14.27,7.49,7.49,0,0,0-.3.79c-.18.58-.35,1.17-.5,1.78-.31,1.21-.57,2.45-.83,3.69-.52,2.49-1,5-1.44,7.5a46.32,46.32,0,0,1-2.34,7.42,47.88,47.88,0,0,1-3.4,7,23.52,23.52,0,0,1-2.28,3.23,14.85,14.85,0,0,1-1.41,1.46,7.49,7.49,0,0,1-1.81,1.14A15.88,15.88,0,0,1,73,73.46c-.65.11-1.3.2-2,.26A8.1,8.1,0,0,1,69,73.66a7.57,7.57,0,0,1-3.81-1.84,7.08,7.08,0,0,1-1.36-1.65,6.66,6.66,0,0,1-.49-1,3,3,0,0,1-.22-.64c0-.22,0-.37-.05-.56a6.36,6.36,0,0,1,1.18-4.18,16.91,16.91,0,0,1,3.11-2.61A30,30,0,0,1,74.45,58c2.46-.81,5-1.4,7.46-2,1.24-.29,2.54-.51,3.62-.87a16.72,16.72,0,0,0,3.27-1.59A38.39,38.39,0,0,0,94.72,49,65.74,65.74,0,0,0,100,43.57a74.29,74.29,0,0,0,4.66-5.94c.72-1,1.42-2.07,2.08-3.14.33-.53.65-1.07,1-1.62l.56-1,.14-.27c.18-.36.37-.71.53-1.07,0,0,.21-.35.51-.93a20.27,20.27,0,0,0,1.28-2.85,11.47,11.47,0,0,0,.36-1.43c.07-.28.14-.38.23-.31a1.51,1.51,0,0,1,.27.66,5.28,5.28,0,0,1,0,1.31,12.91,12.91,0,0,1-.79,3.21c-.26.72-.48,1.26-.48,1.26l-.55,1.09-.56,1a61.74,61.74,0,0,1-4.14,6.34A72.68,72.68,0,0,1,94.91,51.06a35.57,35.57,0,0,1-6.2,4.46A14.93,14.93,0,0,1,85.07,57c-1.26.31-2.44.54-3.66.82-4.79,1.11-9.66,2.37-13.61,5.08A17,17,0,0,0,66.4,64l-.63.61a2.15,2.15,0,0,0-.47.56,5.21,5.21,0,0,0-.58,3.08v.07l.07.16a4,4,0,0,0,.16.37A5.83,5.83,0,0,0,69.42,72a6.36,6.36,0,0,0,1.66,0c.6-.06,1.2-.15,1.79-.25a13.87,13.87,0,0,0,3.37-1,5.78,5.78,0,0,0,1.38-.87,13.2,13.2,0,0,0,1.21-1.25,21.3,21.3,0,0,0,2.08-2.93,45.94,45.94,0,0,0,3.24-6.57,48.07,48.07,0,0,0,2.27-7l1.4-7.32c.25-1.23.51-2.45.8-3.68a19.73,19.73,0,0,1,1.17-3.76c0-.09.12-.19.17-.29l.1-.14.19-.19a1.36,1.36,0,0,1,.22-.17,1.54,1.54,0,0,1,.42-.14,1,1,0,0,1,.44,0,.88.88,0,0,1,.33.14l.22.16L92,37a1.79,1.79,0,0,1,.25.32,1.88,1.88,0,0,1,.26.79,2,2,0,0,1-.08.79c0,.06,0,.13-.07.19l0,.11-.1.21-.39.85-1.55,3.41c-.54,1.15-1,2.25-1.6,3.44a12.77,12.77,0,0,1-2.41,3.17,8.42,8.42,0,0,1-3.54,2.08,5.33,5.33,0,0,1-2.2.16,3.24,3.24,0,0,1-2.1-1.28,3.36,3.36,0,0,1-.55-2.36,5.37,5.37,0,0,1,.75-2.06,37.38,37.38,0,0,1,2.25-3.09,9.55,9.55,0,0,0,1.64-3,3.15,3.15,0,0,0,.13-1.3c0-.06,0-.09-.2-.16l-.13,0-.07,0h0a7.1,7.1,0,0,0-.69.44,5.33,5.33,0,0,1-.48.29,2.44,2.44,0,0,1-.73.22,2.11,2.11,0,0,1-1.44-.38,6.1,6.1,0,0,1-.81-.71,3.66,3.66,0,0,0-.57-.47A1,1,0,0,0,77,38.5a1.48,1.48,0,0,0-.55.13.72.72,0,0,0-.33.29,2.94,2.94,0,0,0-.32,1.39,14.69,14.69,0,0,0,0,1.76A31.13,31.13,0,0,1,76,45.91,5.62,5.62,0,0,1,75.86,47a7.83,7.83,0,0,1-.35,1,8.81,8.81,0,0,1-1,1.79A6.18,6.18,0,0,1,71,52.14a10.37,10.37,0,0,1-2,.32,13.21,13.21,0,0,1-2,0,5.29,5.29,0,0,1-3.79-2.06,3.42,3.42,0,0,1-.51-1,6.51,6.51,0,0,1-.29-1,16.46,16.46,0,0,1-.33-1.94A34,34,0,0,1,62,42.63a85.94,85.94,0,0,1,1.79-15,99.87,99.87,0,0,1,4-14.51,47.3,47.3,0,0,1,3.13-6.93A20.63,20.63,0,0,1,73.11,3a9.77,9.77,0,0,1,1.52-1.38,5,5,0,0,1,.93-.55A2.24,2.24,0,0,1,76.1.88a2.42,2.42,0,0,1,.62-.13,3.08,3.08,0,0,1,2.33.8,5,5,0,0,1,1.3,1.81,6,6,0,0,1,.5,2.11c0,.69,0,1.28,0,1.92,0,2.52-.23,5-.51,7.53a64.77,64.77,0,0,1-3.37,14.71,45.44,45.44,0,0,1-7.3,13.27,34.48,34.48,0,0,1-5.49,5.32c-.51.38-1,.79-1.53,1.15l-1.63,1A10.73,10.73,0,0,1,57.36,52a8.13,8.13,0,0,1-4.12-.11l-.51-.18a3.06,3.06,0,0,1-.49-.25l-.87-.51a8.31,8.31,0,0,1-.82-.6,5.42,5.42,0,0,1-.76-.66,13.21,13.21,0,0,1-3.59-7c-1-5.13-.26-10.25.75-15.16A113.16,113.16,0,0,1,51.2,13.1c.86-2.37,1.69-4.66,2.65-7a15.59,15.59,0,0,1,1.93-3.43A6.32,6.32,0,0,1,59.16.12a3.22,3.22,0,0,1,2.41.3l.51.35a3.29,3.29,0,0,1,.41.43,4.1,4.1,0,0,1,.63.94,8.93,8.93,0,0,1,.76,4,49,49,0,0,1-.57,7.57A54.13,54.13,0,0,1,59,28.21a37.93,37.93,0,0,1-3.84,6.58,23.14,23.14,0,0,1-5.48,5.43,15.31,15.31,0,0,1-3.5,1.8,12.75,12.75,0,0,1-7.84.24,5.53,5.53,0,0,1-1-.31,8.53,8.53,0,0,1-.94-.46,5.63,5.63,0,0,1-1.68-1.4h0a2.43,2.43,0,0,1-.54-1.66A2.57,2.57,0,0,1,35,36.9c.18-.17.38-.31.57-.45a2.45,2.45,0,0,1,.84-.34,5.18,5.18,0,0,1,1.4-.08,6.28,6.28,0,0,1,2.61.71,3.6,3.6,0,0,1,1.13,1,6.26,6.26,0,0,1,.65,1.2,12.42,12.42,0,0,1,.87,5,9.64,9.64,0,0,1-.5,2.52,13.47,13.47,0,0,1-1,2.3,10.91,10.91,0,0,1-.72,1.1,10.06,10.06,0,0,1-.92,1A6.62,6.62,0,0,1,37.56,52a6.73,6.73,0,0,1-5.18-.62,6,6,0,0,1-3-4.31,7.88,7.88,0,0,1,1-5.05A11,11,0,0,1,31.82,40c.54-.61,1.11-1.18,1.68-1.74.29-.28.58-.55.89-.82l.47-.4.13-.1.07-.05c.49.56-1-1.34,1.11,1.25l-.21.2c-.56.53-1.12,1.07-1.67,1.62-2.22,2.19-4.4,4.47-6.81,6.56a24.11,24.11,0,0,1-3.95,2.85,30.69,30.69,0,0,1-4.41,2,17.34,17.34,0,0,1-9.71.74A12.59,12.59,0,0,1,4.86,50a10.8,10.8,0,0,1-3.27-3.84A18.2,18.2,0,0,1,.08,36.55a39.83,39.83,0,0,1,6.12-18A51.14,51.14,0,0,1,19.3,4.78c.63-.48,1.3-.91,1.95-1.37a9.62,9.62,0,0,1,2.21-1.22,13,13,0,0,1,4.92-.87,8,8,0,0,1,2.6.42,3.11,3.11,0,0,1,.72.38,2.89,2.89,0,0,1,.58.57,3.57,3.57,0,0,1,.63,1.39,6.29,6.29,0,0,1-.08,2.7,18.53,18.53,0,0,1-.74,2.36,18,18,0,0,1-5.93,7.72,16.9,16.9,0,0,1-2.07,1.34l-.29.16-.09,0-.36.17c-.24.11-.47.24-.72.34C22.14,19.1,21.65,19.31,21.14,19.46Z"/></g></g><g id="Jarrell"><g id="Jarrell-2" data-name="Jarrell"><path class="cls-3" d="M132.28,61a.13.13,0,0,1,0,.1c.08.42,0,1.25-1.09,1.12a.47.47,0,0,1-.14,0c-.33-.35-.68-.68-1-1l-.47-.54-.23-.27-.12-.13-.06-.07-.62-.78A56.27,56.27,0,0,1,123,50.76a56.44,56.44,0,0,1-4-9.48,34,34,0,0,1-1.75-10.23,44.63,44.63,0,0,1,1-10.29,27.61,27.61,0,0,1,4.12-9.57,25.17,25.17,0,0,1,1.6-2.09l.88-1a12,12,0,0,1,1.05-.94,7.2,7.2,0,0,1,10.18,1.61,9.32,9.32,0,0,1,1.49,5.28,43.9,43.9,0,0,1-1,10.29,83,83,0,0,1-7,19.26c-3,6.11-6.33,12-8.61,18.33a44.25,44.25,0,0,1-2.09,4.74A17.84,17.84,0,0,1,115.75,71a14.93,14.93,0,0,1-2,1.73c-.36.26-.73.5-1.11.73a5.63,5.63,0,0,1-.64.35c-.22.09-.44.19-.66.26a9.78,9.78,0,0,1-2.72.56,5.54,5.54,0,0,1-2.89-.54,4.47,4.47,0,0,1-2-2.29,6.31,6.31,0,0,1-.36-1.41l-.1-.7c0-.23,0-.46,0-.69a8.85,8.85,0,0,1,.36-2.76,9.31,9.31,0,0,1,1.23-2.5,14.91,14.91,0,0,1,3.9-3.67,38.94,38.94,0,0,1,4.51-2.57c3.07-1.53,6.2-2.82,9.12-4.41a24,24,0,0,0,4.09-2.71c.31-.25.59-.54.88-.81l.92-.91c.62-.6,1.25-1.19,1.89-1.75A179.8,179.8,0,0,1,146.22,34.4l1.07-.72.55-.35.27-.17a1.1,1.1,0,0,1,.67-.17,1.05,1.05,0,0,1,.66.33,1,1,0,0,1,.29.71,1,1,0,0,1-.45.83L149,35l-.52.34c-.34.24-.68.46-1,.71a31.92,31.92,0,0,0-3.74,3.24,25.77,25.77,0,0,0-3.12,3.79,10.51,10.51,0,0,0-1.82,4.28,2.84,2.84,0,0,0,1.86,3.2,5.75,5.75,0,0,0,1.07.35,3.86,3.86,0,0,0,.46.1,2,2,0,0,0,.47,0,2.89,2.89,0,0,0,1.67-1,11.64,11.64,0,0,0,2.15-4.17A35.75,35.75,0,0,0,147.63,41c.29-1.64.51-3.3.67-5l.11-1.25v-.16c-.15-.05.46-1.09,1-.87.57-.13,1,1,.84.94v.8l0,2.55-.09,5.09c0,.85-.05,1.71,0,2.48a9.37,9.37,0,0,0,.4,2.29,3.53,3.53,0,0,0,1,1.73,5.11,5.11,0,0,0,.94.48,8.27,8.27,0,0,0,1.09.38,3.64,3.64,0,0,0,2,0A2.6,2.6,0,0,0,157,49.33a11.21,11.21,0,0,0,1.08-4.54,35.41,35.41,0,0,0-.07-5q-.1-1.25-.25-2.49l-.17-1.24-.32-2.16a.43.43,0,0,1,.05-.39l.13-.27a1.18,1.18,0,0,1,.13-.25,1.07,1.07,0,0,1,.34-.2,1,1,0,0,1,.22-.06h.14a.88.88,0,0,1,.32.06c.07,0,.13,0,.22.1l.27.26c.18.17.34.42.52.59s.34.28.51.39.32.2.48.29a4.62,4.62,0,0,0,1,.43c1.49.4,3.22.56,4-.36a4.9,4.9,0,0,0,.34-.43l.1-.13.18-.24a4,4,0,0,1,.42-.45,1.54,1.54,0,0,1,.91-.46,1.47,1.47,0,0,1,1,.23,1.5,1.5,0,0,1,.61.76,1.16,1.16,0,0,1,.06.23l0,.27-.08.55-.08.55-.07.32-.14.62c-.72,3.29-1.46,6.62-1.93,9.91,0,.41-.11.82-.13,1.21a4.33,4.33,0,0,0,0,.55v.18c-.1.05.23,0-.23.13.47-.12.16,0,.28.05a5.74,5.74,0,0,0,1.09,1.91,2.5,2.5,0,0,0,1.67.86c.33,0,.75,0,1.12,0h.72c0-.41.26.83.14,0l.23-.07c1.25-.35,2.09-1.73,2.54-3.23a18.11,18.11,0,0,0,.68-4.79,31.82,31.82,0,0,0-.28-4.94c-.11-.82-.25-1.63-.42-2.44l-.08-.35-.16-.62a2.55,2.55,0,0,1-.12-.58l.06-.42a.67.67,0,0,1,.11-.37,1.23,1.23,0,0,1,.31-.32,1,1,0,0,1,.77-.22l.19,0a.35.35,0,0,1,.22.08l.52.31.53.37.29.17a5.78,5.78,0,0,0,3.22.7,4.8,4.8,0,0,0,2-.81l.49-.33.27-.19.51-.38a1.41,1.41,0,0,1,1.88.22,1.06,1.06,0,0,1,.29,1l-.05.58a2.08,2.08,0,0,1,0,.3l0,.17-.25,1.24-.48,2.49c-.31,1.66-.61,3.32-.87,5-.13.83-.26,1.66-.36,2.49l-.07.62a3.08,3.08,0,0,0,0,.51,4.83,4.83,0,0,0,.18,1.06,4,4,0,0,0,1,1.8,3.66,3.66,0,0,0,1.84.9,5.58,5.58,0,0,0,2.19-.08,5.85,5.85,0,0,0,1.1-.37l1.12-.45a13,13,0,0,0,3.87-2.76,15.74,15.74,0,0,0,4-8.62,17.89,17.89,0,0,0,.22-2.42c0-.2,0-.39,0-.59,0,0-.05-.24-.09-.39a3.19,3.19,0,0,0-.44-.91c-.72-1.1-2.18-1.13-3.49-.39A7,7,0,0,0,193,35.41a6.08,6.08,0,0,0-1.06,1.92,14.72,14.72,0,0,0-.76,4.72A12.4,12.4,0,0,0,192,46.7a6.49,6.49,0,0,0,2.86,3.37,11.6,11.6,0,0,0,4.53,1.06,5.51,5.51,0,0,0,4.06-1.58,30.18,30.18,0,0,0,5.92-7.85A101.84,101.84,0,0,0,216.94,23c1-3.21,2-6.49,2.75-9.72a21.4,21.4,0,0,0,.61-4.84A7.24,7.24,0,0,0,220,6.25c-.23-.68-.61-1.14-1-1.19a2.08,2.08,0,0,0-1.39.46,7.32,7.32,0,0,0-1.39,1.29,17.85,17.85,0,0,0-2.2,3.42,49.47,49.47,0,0,0-3.26,7.71,76.41,76.41,0,0,0-2,8.17c-.56,2.76-1,5.55-1.31,8.34a50.23,50.23,0,0,0-.31,8.36,20,20,0,0,0,.63,4,6.72,6.72,0,0,0,1.8,3.25,4.09,4.09,0,0,0,3.37.73,10.18,10.18,0,0,0,3.7-1.28,21,21,0,0,0,5.86-5.65,73.81,73.81,0,0,0,8.89-14.29,78,78,0,0,0,3.17-7.81,30,30,0,0,0,1.17-4c.29-1.35.49-2.74.67-4.13s.3-2.8.41-4.2a4.63,4.63,0,0,0-.07-1.81,2.2,2.2,0,0,0-.89-1.24,2,2,0,0,0-1.43-.3,2.83,2.83,0,0,0-1.41.79c-1,1-2,2-2.91,3l-.31.37a3.91,3.91,0,0,0-.25.38l-.54.88c-.36.59-.66,1.22-1,1.82-.63,1.24-1.2,2.52-1.74,3.81a78.07,78.07,0,0,0-2.75,8,72,72,0,0,0-1.88,8.2,28.17,28.17,0,0,0-.36,8.2,36.6,36.6,0,0,0,.94,4,11.88,11.88,0,0,0,1.67,3.58,4.46,4.46,0,0,0,3,1.84,16.73,16.73,0,0,0,4-.16,11.26,11.26,0,0,0,6.92-3.57l.65-.76.59-.82c.36-.49.85-1.41.72-1.16l0-.06.14-.24.51-1s.32-.53.71-1.27.86-1.71,1.28-2.49c1.26-2.75,1.25-1.52.86.35a20.75,20.75,0,0,1-.6,2.12L242,43.49l-.3.69c-.18.34-.33.69-.53,1l-.07.12,0,.06-.41.68c-.17.31-.4.59-.59.88a16.19,16.19,0,0,1-1.35,1.67,12.93,12.93,0,0,1-7.57,3.87,20.16,20.16,0,0,1-2.1.23,12.26,12.26,0,0,1-2.17,0,6,6,0,0,1-4.07-2.05,11.19,11.19,0,0,1-2.08-3.83,30,30,0,0,1-1-4c-.06-.34-.14-.67-.19-1l-.12-1.07c-.08-.72,0-1.41-.07-2.12q.07-2.09.35-4.14a77.05,77.05,0,0,1,4.15-15.87,53.48,53.48,0,0,1,3.42-7.5l.54-.89.27-.45.14-.22.19-.27c.48-.58.94-1.06,1.41-1.56l1.43-1.47A6.35,6.35,0,0,1,233,4.79a3.73,3.73,0,0,1,2.55-.24A3.62,3.62,0,0,1,237.67,6a4.38,4.38,0,0,1,.73,2.36c0,.43,0,.76,0,1.1l-.08,1a61.07,61.07,0,0,1-1.15,8.15,74.78,74.78,0,0,1-15.49,28.74,15.39,15.39,0,0,1-7,4.73,11.82,11.82,0,0,1-2.15.39,8,8,0,0,1-1.15,0,7.49,7.49,0,0,1-1.18-.22,5.83,5.83,0,0,1-3.35-3.15A14.14,14.14,0,0,1,205.59,45a29.45,29.45,0,0,1-.28-4.16,62.36,62.36,0,0,1,.57-8.21q.53-4.07,1.39-8.07a66.31,66.31,0,0,1,2.1-7.94,52.5,52.5,0,0,1,3.3-7.56A18.38,18.38,0,0,1,215,5.56a8.51,8.51,0,0,1,1.68-1.49,3.58,3.58,0,0,1,2.5-.66,2.64,2.64,0,0,1,1.56.91,4.08,4.08,0,0,1,.76,1.38A8.83,8.83,0,0,1,222,8.47a23,23,0,0,1-.65,5.23c-.83,3.36-1.77,6.58-2.78,9.85a103.39,103.39,0,0,1-7.72,19,31.7,31.7,0,0,1-6.29,8.3,8.32,8.32,0,0,1-2.37,1.5,6.94,6.94,0,0,1-2.82.47,14.9,14.9,0,0,1-2.67-.35l-.64-.14-.67-.22a5.17,5.17,0,0,1-1.31-.55,8.16,8.16,0,0,1-3.61-4.2,14,14,0,0,1-1-5.29,16.35,16.35,0,0,1,.86-5.28,7.62,7.62,0,0,1,1.4-2.49,6.72,6.72,0,0,1,1-1,9.39,9.39,0,0,1,1.18-.76,5.19,5.19,0,0,1,2.9-.69,3.73,3.73,0,0,1,1.55.48,4,4,0,0,1,1.18,1.09,4.84,4.84,0,0,1,.68,1.37,3,3,0,0,1,.17.84c0,.23,0,.46,0,.68a19.53,19.53,0,0,1-.24,2.64,17.4,17.4,0,0,1-4.45,9.52,14.71,14.71,0,0,1-4.36,3.11l-1.24.5a7.44,7.44,0,0,1-4.17.53,5.34,5.34,0,0,1-2.67-1.31,5.57,5.57,0,0,1-1.47-2.58,6.49,6.49,0,0,1-.24-1.44,4.8,4.8,0,0,1,0-.76l.08-.64c.11-.85.24-1.7.37-2.54.27-1.69.57-3.36.88-5l.75-3.9-.25.18-.56.38a6.26,6.26,0,0,1-2.73,1.06,7.45,7.45,0,0,1-4.13-.9l-.26-.15h0l.06.27c.19.85.33,1.71.45,2.57a33.48,33.48,0,0,1,.29,5.2,19.71,19.71,0,0,1-.76,5.24,8.84,8.84,0,0,1-1.21,2.53,4.74,4.74,0,0,1-2.44,1.79l-.38.1-.35,0-.7,0c-.48,0-.9,0-1.42,0a4.18,4.18,0,0,1-2.75-1.39,7.36,7.36,0,0,1-1.43-2.46A2.62,2.62,0,0,1,165,48a5.84,5.84,0,0,1,0-.72c0-.46.08-.89.14-1.32.49-3.42,1.22-6.73,2-10.05l.23-1-.1.14a6.5,6.5,0,0,1-.45.57,3.51,3.51,0,0,1-1.35.94,4.64,4.64,0,0,1-1.51.28,9.44,9.44,0,0,1-2.76-.37,6.22,6.22,0,0,1-1.35-.57c-.2-.12-.41-.23-.6-.37h0l.22,1.61q.16,1.28.26,2.57a37,37,0,0,1,.07,5.2,12.69,12.69,0,0,1-1.29,5.26,4.28,4.28,0,0,1-2.34,2,5.27,5.27,0,0,1-3,0,9.92,9.92,0,0,1-1.31-.46A6.22,6.22,0,0,1,150.5,51a5.1,5.1,0,0,1-1.59-2.55,15.62,15.62,0,0,1-.46-5.3l.09-5.07,0-2.54V34.9c-.83-.3,2.34-.22,1.48,0L150,36.22c-.16,1.71-.38,3.41-.69,5.1a37.37,37.37,0,0,1-1.22,5.05,13.14,13.14,0,0,1-2.51,4.78,4.55,4.55,0,0,1-2.63,1.51,3.69,3.69,0,0,1-.8,0,4.1,4.1,0,0,1-.79-.15,7.38,7.38,0,0,1-1.34-.45,4.83,4.83,0,0,1-2.3-1.94,4.67,4.67,0,0,1-.55-3,12,12,0,0,1,2.08-5,27.41,27.41,0,0,1,3.33-4,33.58,33.58,0,0,1,3.94-3.41c.35-.26.71-.51,1.07-.75l.55-.36.14-.09c.19.2-.23-.58.46.44,0,.07.07.05,0,.05a.16.16,0,0,0-.08,0,.14.14,0,0,0,0-.05c.12.2-.28-.49.31.57l-.26.17-.52.33-1,.7a178.32,178.32,0,0,0-16,12.39c-.63.55-1.24,1.13-1.84,1.7l-.89.88c-.32.31-.64.63-1,.91a25.59,25.59,0,0,1-4.37,2.9c-3,1.65-6.18,2.95-9.18,4.44a37.35,37.35,0,0,0-4.32,2.46,13.3,13.3,0,0,0-3.47,3.24,7,7,0,0,0-1.3,4.3c0,.19,0,.39,0,.58l.08.56a4.67,4.67,0,0,0,.26,1,2.79,2.79,0,0,0,1.25,1.43,5.79,5.79,0,0,0,4.29-.1c.19-.06.35-.14.52-.21a3.9,3.9,0,0,0,.47-.26c.35-.21.69-.43,1-.66a13.27,13.27,0,0,0,1.83-1.54c2.25-2.27,3.58-5.38,4.8-8.49C121.67,54.92,125,48.93,128,42.9a87.28,87.28,0,0,0,4-9.23A74.54,74.54,0,0,0,134.88,24a42.24,42.24,0,0,0,1-9.9,9.23,9.23,0,0,0-.08-1.2l-.06-.57-.14-.55a6.47,6.47,0,0,0-.91-2,5.53,5.53,0,0,0-7.82-1.23,10.61,10.61,0,0,0-.84.75l-.82.91a23.5,23.5,0,0,0-1.49,1.95,25.94,25.94,0,0,0-3.87,9,43,43,0,0,0-1,9.9,32.31,32.31,0,0,0,1.67,9.73,54.78,54.78,0,0,0,3.92,9.2,54.63,54.63,0,0,0,5.46,8.38l.6.75.06.06.11.13.22.26.45.51C131.64,60.41,132,60.71,132.28,61Z"/></g></g></g></svg>