<svg xmlns="http://www.w3.org/2000/svg" viewBox="0 0 1139.52 329"><defs><style>.cls-1{fill:#fff;}</style></defs><title>IllLight-Logo_3</title><g id="Layer_2" data-name="Layer 2"><g id="Photography"><rect x="340.5" y="211.87" width="797" height="52" rx="26" ry="26"/><path class="cls-1" d="M391.17,230.77q0,5.41-2.67,7.94t-7.92,2.54h-2.69V255.7h-2.53v-35h5.17q5.53,0,8.09,2.42T391.17,230.77Zm-13.28,8.33h2.53q4.44,0,6.3-1.94t1.86-6.39q0-4.23-1.92-6.07t-6-1.83h-2.82Z"/><path class="cls-1" d="M461.88,255.7h-2.53v-17.2H446.17v17.2h-2.53v-35h2.53v15.53h13.18V220.72h2.53Z"/><path class="cls-1" d="M537.23,238.16q0,8.68-2.8,13.35a9.36,9.36,0,0,1-16.21,0q-2.77-4.7-2.77-13.36,0-9,2.74-13.47a9,9,0,0,1,8.22-4.43,8.85,8.85,0,0,1,8,4.65Q537.23,229.52,537.23,238.16Zm-19.15,0q0,7.8,2.11,11.78t6.14,4a6.66,6.66,0,0,0,6.16-3.95q2.11-3.95,2.11-11.82t-2.07-11.74a6.58,6.58,0,0,0-6.12-4,6.68,6.68,0,0,0-6.24,4Q518.08,230.48,518.08,238.16Z"/><path class="cls-1" d="M597.08,255.7h-2.53V223H587v-2.25H604.6V223h-7.52Z"/><path class="cls-1" d="M676.26,238.16q0,8.68-2.8,13.35a9.36,9.36,0,0,1-16.21,0q-2.77-4.7-2.77-13.36,0-9,2.74-13.47a9,9,0,0,1,8.22-4.43,8.85,8.85,0,0,1,8,4.65Q676.26,229.52,676.26,238.16Zm-19.15,0q0,7.8,2.11,11.78t6.14,4a6.66,6.66,0,0,0,6.16-3.95q2.11-3.95,2.11-11.82t-2.07-11.74a6.58,6.58,0,0,0-6.12-4,6.68,6.68,0,0,0-6.24,4Q657.11,230.48,657.11,238.16Z"/><path class="cls-1" d="M742.26,238.06h8.27v16.56a26.26,26.26,0,0,1-9,1.55,11.09,11.09,0,0,1-9.59-4.79q-3.41-4.79-3.41-13.28t3.53-13.21a11.68,11.68,0,0,1,9.91-4.69,15.61,15.61,0,0,1,8.09,2.25l-1.21,2.06a13.54,13.54,0,0,0-6.87-2.11,9.07,9.07,0,0,0-8,4q-2.73,4-2.73,11.71,0,7.51,2.75,11.64a8.83,8.83,0,0,0,7.79,4.13A19,19,0,0,0,748,253V240.31h-5.71Z"/><path class="cls-1" d="M806.71,240.41V255.7h-2.53v-35h5.17q5.53,0,8.09,2.42t2.56,7.22a11.56,11.56,0,0,1-1.4,6,8.49,8.49,0,0,1-4.68,3.52l7.49,15.84h-2.84l-7.05-15.29Zm0-2.15h3.54a7,7,0,0,0,5.3-2q1.86-2,1.86-5.84t-1.9-5.69q-1.9-1.75-6-1.75h-2.82Z"/><path class="cls-1" d="M887.52,255.7,884.19,243H875l-3.28,12.68H869.1l9.1-35h2.61l9.3,35Zm-3.93-15-3.33-13q-.52-2.2-.8-4.16a35.17,35.17,0,0,1-.72,4.16l-3.23,13Z"/><path class="cls-1" d="M956.62,230.77q0,5.41-2.67,7.94T946,241.25h-2.69V255.7h-2.53v-35H946q5.53,0,8.09,2.42T956.62,230.77Zm-13.28,8.33h2.53q4.44,0,6.3-1.94t1.86-6.39q0-4.23-1.92-6.07t-6-1.83h-2.82Z"/><path class="cls-1" d="M1027.33,255.7h-2.53v-17.2h-13.18v17.2h-2.53v-35h2.53v15.53h13.18V220.72h2.53Z"/><path class="cls-1" d="M1086.92,238.78l6.15-18.06h2.69L1088.13,242V255.7h-2.53V242L1078,220.72h2.69Z"/></g><g id="Layer_12" data-name="Layer 12"><line class="cls-1" x1="363" y1="191.87" x2="1126" y2="191.87"/><path d="M363,191.87l23.84-.44,23.84-.36,47.69-.71h572.25c31.79.51,63.58.89,95.38,1.5-31.79.61-63.58,1-95.37,1.5H458.38l-47.69-.71-23.84-.36Z"/></g><g id="Illustrious_Light" data-name="Illustrious Light"><path d="M366.55,183.56c-1.55-.2-2.33-.83-2.33-1.89A2.7,2.7,0,0,1,366,179.2q8.43,0,17-.58t17-1.45q-2.62-20.07-3.35-40.14t-.73-40.14q-7.27,1.17-14.25,1.89t-14.25,1q-2-.58-2-2a3.33,3.33,0,0,1,1.45-2.62q3.78,0,7.85-.29t10.76-1.16q6.69-.87,16.87-2.33t25.89-4.07c1.55,0,2.42.68,2.62,2s-.49,2.23-2,2.62q-7.27.87-14.25,2T400.3,96.59q0,20.07.87,40t3.2,40q10.18-1.16,19.93-2.62t19.93-2.91c1.55,0,2.42.68,2.62,2s-.58,2.23-2.33,2.62l-19.63,2.91q-9.75,1.46-19.93,2.62c0,1.55-.68,2.37-2,2.47a2.32,2.32,0,0,1-2.62-1.89L383.42,183Q375,183.56,366.55,183.56Z"/><path d="M457.6,64.88a3.92,3.92,0,0,1,2.33-2.47q1.75-.72,2.33,1.6-.29,27.35-1,54.1t-1,54.1a3.17,3.17,0,0,1-2.33,2.47q-2,.73-2-1.89.29-27.34.87-54.1T457.6,64.88Z"/><path d="M479.7,64.88A3.92,3.92,0,0,1,482,62.41q1.75-.72,2.33,1.6-.29,27.35-1,54.1t-1,54.1a3.17,3.17,0,0,1-2.33,2.47q-2,.73-2-1.89.29-27.34.87-54.1T479.7,64.88Z"/><path d="M497.15,135.85a3,3,0,0,1,1.89-2.91q1.89-.87,2.47,1.45,0,1.75.15,7t.73,10.62a69,69,0,0,0,1.75,9.89q1.16,4.51,3.49,4.8,1.75,0,3.64-2.18A28.75,28.75,0,0,0,514.9,159q1.75-3.34,3.35-7a58,58,0,0,0,2.47-6.54q0-4.94.15-9.16t.44-7.13q.58-3.2,3.49-2.33,2.62,2,2.47,7a42.07,42.07,0,0,1-1.89,10.76q0,8.44.73,16.43t2.18,10.91a2.91,2.91,0,0,1-1.16,2.91,2,2,0,0,1-2.91-.29,26.28,26.28,0,0,1-2.18-7.85q-.73-4.94-1-10.76a56.39,56.39,0,0,1-6.4,9.75q-3.49,4.22-6.69,5.24t-6-2.33q-2.77-3.34-3.93-12.94-.59-4.94-.73-9.89T497.15,135.85Z"/><path d="M574.82,124.22q1.75,1.46.73,2.62a3.85,3.85,0,0,1-3.05,1.16q-3.2-.58-7.42-1t-8.44-.73a76.27,76.27,0,0,0-8-.15,31.27,31.27,0,0,0-6.11.73,3.4,3.4,0,0,0-1.89,1.45c-.29.58,0,1.36,1,2.33a47.22,47.22,0,0,0,7.27,5.82q4.36,2.91,9.16,6t9.74,6.25q4.94,3.2,9,6.4a59.05,59.05,0,0,1,8.44-1.16q4.36-.29,8.44-.87c1.55.39,2.08,1.16,1.6,2.33a3.93,3.93,0,0,1-2.47,2.33l-11.93,1.16q3.78,3.78,4.07,7.42a10.86,10.86,0,0,1-1.75,6.83,18.18,18.18,0,0,1-5.67,5.53,23,23,0,0,1-8,3.2,46.53,46.53,0,0,1-9,1,39.45,39.45,0,0,1-10.18-1,27,27,0,0,1-8.73-3.64,9.13,9.13,0,0,1-4.36-6.54q0-2.32,4.22-4.8a74,74,0,0,1,9.6-4.65q5.38-2.18,10.76-3.78t8-2.18q-4.95-3.49-10.76-7.27t-10.91-7.13q-5.09-3.34-8.73-6.11t-4.22-4.51a9,9,0,0,1-.44-4.8q.44-2.47,3.64-3.64a33.57,33.57,0,0,1,7.27-1.16q4.36-.29,9.16-.15a98.68,98.68,0,0,1,19.93,2.76ZM567,178q10.18-2.32,12.65-7.42t-5.09-10.91a69.48,69.48,0,0,0-9.89,2.18q-5.53,1.6-10.33,3.34a79.57,79.57,0,0,0-8.29,3.49q-3.49,1.75-3.78,2.91,0,2.33,2.91,3.78a29.17,29.17,0,0,0,7,2.33,39.42,39.42,0,0,0,8.29.87A28.31,28.31,0,0,0,567,178Z"/><path d="M587.33,139.05q-2.62,0-1.89-2a3.94,3.94,0,0,1,2.47-2.62q5.82,0,11.34-.44t11.34-1q.58-14.83,1-29.82t1-30.11A3.5,3.5,0,0,1,615,70.7q1.75-.58,2.33,1.75-.59,15.13-1.31,30t-.73,29.67q5.82-.58,11.2-1.31t11.2-1.31q2.32.29,1.75,2a3.5,3.5,0,0,1-2.33,2.33q-5.53.59-10.91,1.45t-10.91,1.45q-.29,2-.44,7.27t-.15,11.78q0,6.54.58,13.67A101.69,101.69,0,0,0,617,182.1a3.88,3.88,0,0,1-2,2.76q-1.75,1-2.62-1.31a112.61,112.61,0,0,1-1.75-12.94q-.59-7.12-.58-13.82t.15-12.07q.14-5.38.44-7.42L599,138.47A116.09,116.09,0,0,1,587.33,139.05Z"/><path d="M645.5,118.69a3,3,0,0,1,2-2.91q2-.87,2.62,1.45v24.87A135.38,135.38,0,0,0,652.48,167q2.62-9.6,5.24-16.43a31.12,31.12,0,0,1,6.84-11.05,26.91,26.91,0,0,1,10.91-6.4q6.69-2.18,17.74-2.76c1.55.39,2.13,1.16,1.75,2.33a3.5,3.5,0,0,1-2.33,2.33q-13.09.59-19.2,3.35a18.7,18.7,0,0,0-8.87,7.56,42.48,42.48,0,0,0-4.36,11.93,107.1,107.1,0,0,1-5.38,16.43,3.51,3.51,0,0,1-2,2c-1,.39-1.75-.1-2.33-1.45a81.44,81.44,0,0,1-4.95-27.92Z"/><path d="M706.29,129.75a4,4,0,0,1,2.33-2.18q1.75-.72,2,1.6-.29,11.06-.87,21.67t-.87,21.67a4,4,0,0,1-2.47,2.76c-1.26.49-1.89-.14-1.89-1.89q.29-11.05.87-21.82T706.29,129.75Zm4.07-30q1.16,1.46-.44,3.2t-3.05.58q-1.75-1.16,0-3.05T710.37,99.78Z"/><path d="M722.87,152.14A53.42,53.42,0,0,1,728,141.82a24.86,24.86,0,0,1,6.84-7.71c-.39-1,.15-2.13,1.6-3.49s2.57-1.45,3.35-.29a27.06,27.06,0,0,1,5.09,7,62.75,62.75,0,0,1,3.35,8.14q2.33,8.15,1.31,13.82a16.82,16.82,0,0,1-4.07,8.87,12.18,12.18,0,0,1-7.42,3.78,17.06,17.06,0,0,1-8.73-1.16,10.91,10.91,0,0,1-6.54-6.25Q720.54,159.71,722.87,152.14Zm7.27,13.67q7.27,3.49,10.91.73t4.22-8.29a30.58,30.58,0,0,0-1.16-11.63,21.19,21.19,0,0,0-4.95-9.31q-3.21.87-6.4,4.8a33.38,33.38,0,0,0-5.09,8.58,20.17,20.17,0,0,0-1.6,9A6.73,6.73,0,0,0,730.14,165.82Z"/><path d="M758.07,135.85a3,3,0,0,1,1.89-2.91q1.89-.87,2.47,1.45,0,1.75.15,7T763.3,152a69.1,69.1,0,0,0,1.75,9.89q1.16,4.51,3.49,4.8,1.74,0,3.64-2.18a28.77,28.77,0,0,0,3.64-5.53q1.74-3.34,3.34-7a58,58,0,0,0,2.47-6.54q0-4.94.15-9.16t.44-7.13q.58-3.2,3.49-2.33,2.62,2,2.47,7a42.11,42.11,0,0,1-1.89,10.76q0,8.44.73,16.43t2.18,10.91a2.91,2.91,0,0,1-1.16,2.91,2,2,0,0,1-2.91-.29,26.31,26.31,0,0,1-2.18-7.85q-.73-4.94-1-10.76a56.42,56.42,0,0,1-6.4,9.75q-3.49,4.22-6.69,5.24t-6-2.33q-2.77-3.34-3.93-12.94-.59-4.94-.73-9.89T758.07,135.85Z"/><path d="M835.73,124.22q1.74,1.46.73,2.62A3.85,3.85,0,0,1,833.4,128q-3.2-.58-7.42-1t-8.44-.73a76.25,76.25,0,0,0-8-.15,31.27,31.27,0,0,0-6.11.73,3.4,3.4,0,0,0-1.89,1.45c-.29.58,0,1.36,1,2.33a47.23,47.23,0,0,0,7.27,5.82q4.36,2.91,9.16,6t9.74,6.25q4.94,3.2,9,6.4a59.07,59.07,0,0,1,8.44-1.16q4.36-.29,8.44-.87c1.55.39,2.08,1.16,1.6,2.33a3.93,3.93,0,0,1-2.47,2.33l-11.93,1.16q3.78,3.78,4.07,7.42a10.85,10.85,0,0,1-1.75,6.83,18.18,18.18,0,0,1-5.67,5.53,23.05,23.05,0,0,1-8,3.2,46.52,46.52,0,0,1-9,1,39.46,39.46,0,0,1-10.18-1,27,27,0,0,1-8.73-3.64,9.13,9.13,0,0,1-4.36-6.54q0-2.32,4.22-4.8a74,74,0,0,1,9.6-4.65q5.38-2.18,10.76-3.78t8-2.18q-4.95-3.49-10.76-7.27t-10.91-7.13q-5.09-3.34-8.73-6.11t-4.22-4.51a9,9,0,0,1-.44-4.8q.44-2.47,3.64-3.64a33.58,33.58,0,0,1,7.27-1.16q4.36-.29,9.16-.15a98.66,98.66,0,0,1,19.93,2.76ZM827.88,178q10.18-2.32,12.65-7.42t-5.09-10.91a69.49,69.49,0,0,0-9.89,2.18q-5.53,1.6-10.33,3.34a79.55,79.55,0,0,0-8.29,3.49q-3.49,1.75-3.78,2.91,0,2.33,2.91,3.78a29.16,29.16,0,0,0,7,2.33,39.41,39.41,0,0,0,8.29.87A28.32,28.32,0,0,0,827.88,178Z"/><path d="M905.83,89.31q.58-2.32,2.47-2t1.89,2.62q0,1.75-.15,7.71t-.15,12.94q0,7-.15,13.09t-.15,7.85q.29,9,1,18.91a47.39,47.39,0,0,0,4.22,17.16,19.72,19.72,0,0,0,10.76,10.18q7.27,2.91,20.07-2A77.27,77.27,0,0,0,958,169.6q5.67-3.49,11.49-6.69c1.55,0,2.47.54,2.76,1.6a2.42,2.42,0,0,1-1.31,2.76q-5.82,3.21-11.64,6.69a75.13,75.13,0,0,1-11.93,5.82q-13.68,5.52-22.11,2.76a23.18,23.18,0,0,1-13.09-10.62,51.39,51.39,0,0,1-6.25-19.2,181.86,181.86,0,0,1-1.75-23.27q-.15-11.92.58-22.69T905.83,89.31Z"/><path d="M979.71,129.75a4,4,0,0,1,2.33-2.18q1.75-.72,2,1.6-.29,11.06-.87,21.67t-.87,21.67a4,4,0,0,1-2.47,2.76c-1.26.49-1.89-.14-1.89-1.89q.29-11.05.87-21.82T979.71,129.75Zm4.07-30q1.16,1.46-.44,3.2t-3.05.58q-1.74-1.16,0-3.05T983.78,99.78Z"/><path d="M1032.94,147.49a2.84,2.84,0,0,1-1.31,3.35c-1.26.87-2.18.54-2.76-1q-.87-5.24-3.49-7.27a149.19,149.19,0,0,0,4.95,26.32q3.49,12.07,6.69,24,5.24-1.74,11.2-3.34a63.78,63.78,0,0,1,11.05-2,25.7,25.7,0,0,1,8.87.58,6.69,6.69,0,0,1,4.95,4.22q.58,1.74-1.31,3.2t-3.05-.87q-.87-2.62-5.09-2.76a38.58,38.58,0,0,0-9.16.87,97.68,97.68,0,0,0-9.6,2.47,58.85,58.85,0,0,1-6.4,1.75q1.75,5.82,4.07,13.24t4.51,15.71a140.63,140.63,0,0,1,3.35,16.87,81.49,81.49,0,0,1,.58,16.73q-.87,10.76-5.24,18A32.66,32.66,0,0,1,1034.25,289,38.82,38.82,0,0,1,1018,294.1a60.77,60.77,0,0,1-19.34-1.45A53.58,53.58,0,0,1,987.27,289a42.39,42.39,0,0,1-9.75-6,29.78,29.78,0,0,1-6.83-8,21.53,21.53,0,0,1-2.91-9.74,43.19,43.19,0,0,1,4.95-23.56,76.86,76.86,0,0,1,15.56-20.22,116.93,116.93,0,0,1,21.53-16,153.11,153.11,0,0,1,22.54-10.91q-3.2-10.19-6.11-20.36t-4.95-20.36a23.38,23.38,0,0,1-4.22,7.56,42.21,42.21,0,0,1-7.42,7.56q-7,5.53-11.93,2t-3.49-12.51a21.7,21.7,0,0,1,2.91-8.29,28.57,28.57,0,0,1,5.82-7,37.41,37.41,0,0,1,7.42-5.09,25.19,25.19,0,0,1,7.71-2.62,93.8,93.8,0,0,1,0-14.83,5.15,5.15,0,0,1,2.33-2.47,2.41,2.41,0,0,1,3.2.44,37.83,37.83,0,0,1,2.62,9.45,36.42,36.42,0,0,1,0,9.16Q1031.77,140.22,1032.94,147.49ZM999.78,287.7a56.12,56.12,0,0,0,16.29,1.6,33.52,33.52,0,0,0,14.11-3.78,28.74,28.74,0,0,0,10.47-9.74q4.21-6.4,5.38-16.29a63.34,63.34,0,0,0,0-14.83,129.4,129.4,0,0,0-2.76-15.42q-1.9-7.85-4.51-15.56t-4.95-15.27q-8.73,2.62-19.92,9.45A127.67,127.67,0,0,0,992.8,224a85.72,85.72,0,0,0-16,20.07q-6.11,10.76-4.36,21.53,1.46,8.43,9.45,14.11A50.73,50.73,0,0,0,999.78,287.7Zm20.36-139.62a30.71,30.71,0,0,1-.87-3.93q-.29-1.89-.58-4.22-9.31,2.62-14,7.56a22.12,22.12,0,0,0-5.82,9.89,10.17,10.17,0,0,0-.29,4.22,8.07,8.07,0,0,0,1.45,3.78,4.4,4.4,0,0,0,2.91,1.89q1.74.29,4.36-1.45Q1012.58,161.75,1020.14,148.07Z"/><path d="M1041.37,82a3,3,0,0,1,2-2.91q2-.87,2.62,1.45,0,20.36,1.31,40.43t3.64,40.43v-.58c0-.58,0-.34.15.73a11.32,11.32,0,0,0,.44,2.47q1.45-6.11,3.2-11.78a54,54,0,0,1,4.95-11.2q2.62-5.24,5.53-6.25a6.21,6.21,0,0,1,5.53.58,23.83,23.83,0,0,1,5.38,4.8q2.76,3.2,5.38,6.84t5.09,6.54a12.35,12.35,0,0,0,4.8,3.78q1.75,1.17.73,2.62a3.2,3.2,0,0,1-2.76,1.45,18.38,18.38,0,0,1-6.69-4.8,82.8,82.8,0,0,1-6.54-7.71q-3.06-4.07-5.53-7.27t-3.34-3.2a31.65,31.65,0,0,0-8.73,15.56q-2,8.88-4.65,17.89a2.9,2.9,0,0,1-2.76,1.75,3.7,3.7,0,0,1-3.05-1.45,438.63,438.63,0,0,1-5.24-44.94Q1041.37,104.73,1041.37,82Z"/><path d="M1087.33,139.05q-2.62,0-1.89-2a3.94,3.94,0,0,1,2.47-2.62q5.82,0,11.34-.44t11.34-1q.58-14.83,1-29.82t1-30.11A3.5,3.5,0,0,1,1115,70.7c1.16-.39,1.94.2,2.33,1.75q-.59,15.13-1.31,30t-.73,29.67q5.82-.58,11.2-1.31t11.2-1.31q2.32.29,1.75,2a3.5,3.5,0,0,1-2.33,2.33q-5.53.59-10.91,1.45t-10.91,1.45q-.29,2-.44,7.27t-.15,11.78q0,6.54.58,13.67A101.69,101.69,0,0,0,1117,182.1a3.88,3.88,0,0,1-2,2.76q-1.74,1-2.62-1.31a112.83,112.83,0,0,1-1.75-12.94q-.59-7.12-.58-13.82t.15-12.07q.14-5.38.44-7.42L1099,138.47A116.11,116.11,0,0,1,1087.33,139.05Z"/><path class="cls-1" d="M967.71,263.87a43.1,43.1,0,0,1,5-22.13,76.86,76.86,0,0,1,15.56-20.22,115.82,115.82,0,0,1,11.72-9.65l7.44.19A129.56,129.56,0,0,0,992.8,224a85.72,85.72,0,0,0-16,20.07q-5.62,9.9-4.59,19.8Zm77.29,0,1-4.39a63.34,63.34,0,0,0,0-14.83,129.4,129.4,0,0,0-2.76-15.42q-1.9-7.85-4.51-15.56l-.54-1.61,4.85-.19q2,6.66,4,14a140.63,140.63,0,0,1,3.35,16.87,81.49,81.49,0,0,1,.58,16.73q-.18,2.27-.52,4.39Zm-24.86-115.8a30.71,30.71,0,0,1-.87-3.93q-.29-1.89-.58-4.22-9.31,2.62-14,7.56a22.12,22.12,0,0,0-5.82,9.89,10.17,10.17,0,0,0-.29,4.22,8.07,8.07,0,0,0,1.45,3.78,4.4,4.4,0,0,0,2.91,1.89q1.74.29,4.36-1.45Q1012.58,161.75,1020.14,148.07Z"/></g><g id="Logo"><path d="M164.5,11.08a153.46,153.46,0,0,1,59.71,294.79A153.46,153.46,0,0,1,104.79,23.13,152.45,152.45,0,0,1,164.5,11.08M164.5,0A164.5,164.5,0,1,0,329,164.5,164.5,164.5,0,0,0,164.5,0Z"/><path d="M140.29,40.73c38.67,80.42-38,95.47-32.74,145.21A56,56,0,0,0,219,174.18C208.91,78.76,127.07,13.22,140.29,40.73Zm27.36,175.41a38.85,38.85,0,0,1-40-37.71c-1-34.67,50.64-57.38,28.16-115-7.8-20,47.59,46.22,49.51,112.79A38.85,38.85,0,0,1,167.65,216.14Z"/><path d="M139.33,182.84a26.53,26.53,0,0,0,52.78,5.57c2.49-23.56-33.35-31.63-15-69.72C183.42,105.49,144.1,137.61,139.33,182.84Zm6.45,1c.91-31.53,27.14-62.89,23.45-53.42-10.65,27.3,13.81,38.06,13.33,54.48a18.4,18.4,0,1,1-36.78-1.06Z"/><path d="M160.46,263.65c-1.5-6.88-1.76-6.84-2.93-9.45-2-4.43-15.61-9.69-24-15.06-5.23-3.34-11.92-7.85-18.08-12.08a64.77,64.77,0,0,1-21.5-25.19c-2-4-4-5.78-6.14-7.91-3.31-3.31-5.91-4-9.34-3-9.5-11-17.2-12.84-20.66-13.1-4.58-10.72-12-11.48-15.57-11.16a92.55,92.55,0,0,0-8.26-9.52c-10.17-3.89-5.68,9.57-3.29,15,2.55,5.74,11.07,22.43,13.46,28.71,1.38,3.63,6,9.27,6,9.27,12,12,18.67,21.17,25.22,34.82h0a9.17,9.17,0,0,0,2.19,2.9c5.32,4.7,32.4,29.44,37.79,32.26,6.28,3.29,3.89,42.77,3.89,42.77h49.35C168.54,310,162.94,275,160.46,263.65Z"/><path class="cls-1" d="M109.17,250.64a35.07,35.07,0,0,1-6.18-3.69,20.16,20.16,0,0,1-5.09-5.28,34.08,34.08,0,0,1-1.64-3.28,14.82,14.82,0,0,0-1.62-3A14.57,14.57,0,0,0,92.3,233c-.89-.76-1.84-1.56-2.72-2.38a54.81,54.81,0,0,1-9.27-11.16,52.77,52.77,0,0,1-5.88-13.23l.11.22a13.21,13.21,0,0,1-2.26-10.3,6.76,6.76,0,0,1,3.11-4.3,7.53,7.53,0,0,1,5-1.22,7.71,7.71,0,0,0-4.74,1.61,6.07,6.07,0,0,0-2.52,4.05,12.38,12.38,0,0,0,.37,4.91,13,13,0,0,0,2.21,4.35l.07.09,0,.13a56.89,56.89,0,0,0,6.09,12.65,58.3,58.3,0,0,0,9,10.76c.85.82,1.73,1.56,2.64,2.35a15.12,15.12,0,0,1,2.57,2.79c1.5,2.19,2,4.57,3.06,6.56a21.78,21.78,0,0,0,4.39,5.33A45.23,45.23,0,0,0,109.17,250.64Z"/><path class="cls-1" d="M41.5,165.37c1.28,2.15,2.49,4.34,3.71,6.52l3.54,6.62c1.16,2.21,2.28,4.45,3.37,6.71q.81,1.69,1.58,3.42a28,28,0,0,1,1.4,3.59l-.4-.44a16.31,16.31,0,0,1,3.2,1.92c1,.7,1.92,1.43,2.86,2.17q2.8,2.23,5.47,4.6c1.78,1.58,3.55,3.17,5.27,4.81s3.42,3.31,5,5.08c-1.78-1.58-3.57-3.14-5.4-4.65s-3.63-3.05-5.48-4.54-3.7-3-5.58-4.4c-.94-.71-1.89-1.42-2.85-2.09A16,16,0,0,0,54.3,193l-.3-.12-.1-.32A67.27,67.27,0,0,0,51,185.73L47.86,179l-3.21-6.77C43.61,169.91,42.52,167.65,41.5,165.37Z"/><path class="cls-1" d="M57.5,177.37a51.06,51.06,0,0,1,5.4,5.15c.83.93,1.65,1.87,2.39,2.89a13.09,13.09,0,0,1,1.94,3.35l-.17-.25a72.79,72.79,0,0,1,6.19,6,72.79,72.79,0,0,1-6.91-5.19l-.11-.09-.06-.16a15.13,15.13,0,0,0-1.78-3c-.72-1-1.45-2-2.23-2.92Z"/><path d="M165.66,263.65c1.5-6.88,1.76-6.84,2.93-9.45,2-4.43,15.61-9.69,24-15.06,5.23-3.34,11.92-7.85,18.08-12.08a64.77,64.77,0,0,0,21.5-25.19c2-4,4-5.78,6.14-7.91,3.31-3.31,5.91-4,9.34-3,9.5-11,17.2-12.84,20.66-13.1,4.58-10.72,12-11.48,15.57-11.16a92.55,92.55,0,0,1,8.26-9.52c10.17-3.89,5.68,9.57,3.29,15-2.55,5.74-11.07,22.43-13.46,28.71-1.38,3.63-6,9.27-6,9.27-12,12-18.67,21.17-25.22,34.82h0a9.17,9.17,0,0,1-2.19,2.9c-5.32,4.7-32.4,29.44-37.79,32.26-6.28,3.29-3.89,42.77-3.89,42.77H157.58C157.58,310,163.18,275,165.66,263.65Z"/><path class="cls-1" d="M217,250.64a45.23,45.23,0,0,0,5.6-4.38,21.78,21.78,0,0,0,4.39-5.33c1.06-2,1.57-4.37,3.06-6.56a15.12,15.12,0,0,1,2.57-2.79c.91-.8,1.79-1.54,2.64-2.35a58.3,58.3,0,0,0,9-10.76,56.89,56.89,0,0,0,6.09-12.65l0-.13.07-.09a13,13,0,0,0,2.21-4.35,12.38,12.38,0,0,0,.37-4.91,6.07,6.07,0,0,0-2.52-4.05,7.71,7.71,0,0,0-4.74-1.61,7.53,7.53,0,0,1,5,1.22,6.76,6.76,0,0,1,3.11,4.3,13.21,13.21,0,0,1-2.26,10.3l.11-.22a52.77,52.77,0,0,1-5.88,13.23,54.81,54.81,0,0,1-9.27,11.16c-.88.83-1.83,1.62-2.72,2.38a14.57,14.57,0,0,0-2.35,2.38,14.82,14.82,0,0,0-1.62,3,34.08,34.08,0,0,1-1.64,3.28,20.16,20.16,0,0,1-5.09,5.28A35.07,35.07,0,0,1,217,250.64Z"/><path class="cls-1" d="M284.62,165.37c-1,2.28-2.11,4.54-3.15,6.81L278.26,179l-3.18,6.78a67.27,67.27,0,0,0-2.86,6.79l-.1.32-.3.12a16,16,0,0,0-2.89,1.73c-1,.68-1.91,1.38-2.85,2.09-1.88,1.43-3.73,2.92-5.58,4.4s-3.66,3-5.48,4.54-3.62,3.07-5.4,4.65c1.59-1.77,3.3-3.42,5-5.08s3.49-3.23,5.27-4.81,3.6-3.11,5.47-4.6c.93-.75,1.88-1.48,2.86-2.17a16.31,16.31,0,0,1,3.2-1.92l-.4.44a28,28,0,0,1,1.4-3.59q.77-1.72,1.58-3.42c1.09-2.26,2.21-4.49,3.37-6.71l3.54-6.62C282.13,169.71,283.33,167.52,284.62,165.37Z"/><path class="cls-1" d="M268.62,177.37,264,183.14c-.77,1-1.51,1.94-2.23,2.92a15.13,15.13,0,0,0-1.78,3l-.06.16-.11.09a72.79,72.79,0,0,1-6.91,5.19,72.79,72.79,0,0,1,6.19-6l-.17.25a13.09,13.09,0,0,1,1.94-3.35c.74-1,1.56-2,2.39-2.89A51.06,51.06,0,0,1,268.62,177.37Z"/></g><g id="iFlame"><path d="M971.28,16.41C989,53.32,954.3,61.14,956.71,84a25.72,25.72,0,1,0,51.15-5.4C1003.23,34.74,965.12,3.61,971.28,16.41Zm13,81.43A17.83,17.83,0,0,1,966,80.53c-.46-15.91,23.24-26.34,12.92-52.8-3.58-9.18,21.84,21.21,22.73,51.77A17.83,17.83,0,0,1,984.29,97.84Z"/><path d="M972.29,80.55a12.18,12.18,0,1,0,24.22,2.56c1.14-10.81-15.31-14.52-6.9-32C992.53,45,974.49,59.79,972.29,80.55Zm3,.44c.42-14.47,12.46-28.86,10.76-24.52-4.89,12.53,6.34,17.47,6.12,25A8.45,8.45,0,1,1,975.25,81Z"/></g></g></svg>