<?xml version="1.0" encoding="utf-8"?>
<!-- Generator: Adobe Illustrator 22.0.1, SVG Export Plug-In . SVG Version: 6.00 Build 0)  -->
<svg version="1.1" id="Layer_1" xmlns="http://www.w3.org/2000/svg" xmlns:xlink="http://www.w3.org/1999/xlink" x="0px" y="0px"
	 viewBox="0 0 1139.5 329" style="enable-background:new 0 0 1139.5 329;" xml:space="preserve">
<style type="text/css">
	.st0{fill:#FFFFFF;}
	.st1{fill:none;}
</style>
<title>IllLight-Logo_3</title>
<g id="Layer_2_1_">
	<g id="Photography">
		<path d="M366.5,211.9h745c14.4,0,26,11.6,26,26l0,0c0,14.4-11.6,26-26,26h-745c-14.4,0-26-11.6-26-26l0,0
			C340.5,223.5,352.1,211.9,366.5,211.9z"/>
		<path class="st0" d="M391.2,230.8c0,3.6-0.9,6.3-2.7,7.9c-1.8,1.7-4.4,2.5-7.9,2.5h-2.7v14.4h-2.5v-35h5.2c3.7,0,6.4,0.8,8.1,2.4
			S391.2,227.3,391.2,230.8z M377.9,239.1h2.5c3,0,5.1-0.6,6.3-1.9c1.2-1.3,1.9-3.4,1.9-6.4c0-2.8-0.6-4.8-1.9-6.1
			c-1.3-1.2-3.3-1.8-6-1.8h-2.8L377.9,239.1z"/>
		<path class="st0" d="M461.9,255.7h-2.5v-17.2h-13.2v17.2h-2.5v-35h2.5v15.5h13.2v-15.5h2.5V255.7z"/>
		<path class="st0" d="M537.2,238.2c0,5.8-0.9,10.2-2.8,13.4c-2.6,4.5-8.3,6-12.8,3.4c-1.4-0.8-2.6-2-3.4-3.4
			c-1.8-3.1-2.8-7.6-2.8-13.4c0-6,0.9-10.5,2.7-13.5c1.7-2.9,4.9-4.6,8.2-4.4c3.3-0.1,6.4,1.7,8,4.6
			C536.3,228,537.2,232.4,537.2,238.2z M518.1,238.2c0,5.2,0.7,9.1,2.1,11.8s3.5,4,6.1,4c2.7,0,5.1-1.5,6.2-3.9
			c1.4-2.6,2.1-6.6,2.1-11.8c0-5.2-0.7-9.2-2.1-11.7c-1-2.4-3.5-4-6.1-4c-2.7,0-5.2,1.5-6.2,4C518.8,229.1,518.1,233,518.1,238.2
			L518.1,238.2z"/>
		<path class="st0" d="M597.1,255.7h-2.5V223H587v-2.2h17.6v2.2h-7.5L597.1,255.7z"/>
		<path class="st0" d="M676.3,238.2c0,5.8-0.9,10.2-2.8,13.4c-2.6,4.5-8.3,6-12.8,3.4c-1.4-0.8-2.6-2-3.4-3.4
			c-1.8-3.1-2.8-7.6-2.8-13.4c0-6,0.9-10.5,2.7-13.5c1.7-2.9,4.9-4.6,8.2-4.4c3.3-0.1,6.4,1.7,8,4.6
			C675.3,228,676.3,232.4,676.3,238.2z M657.1,238.2c0,5.2,0.7,9.1,2.1,11.8s3.5,4,6.1,4c2.7,0,5.1-1.5,6.2-3.9
			c1.4-2.6,2.1-6.6,2.1-11.8c0-5.2-0.7-9.2-2.1-11.7c-1-2.4-3.5-4-6.1-4c-2.7,0-5.2,1.5-6.2,4C657.8,229.1,657.1,233,657.1,238.2z"
			/>
		<path class="st0" d="M742.3,238.1h8.3v16.6c-2.9,1-5.9,1.6-9,1.5c-3.8,0.2-7.4-1.7-9.6-4.8c-2.3-3.2-3.4-7.6-3.4-13.3
			s1.2-10.1,3.5-13.2c2.3-3.1,6-4.9,9.9-4.7c2.9,0,5.6,0.8,8.1,2.2l-1.2,2.1c-2.1-1.3-4.4-2-6.9-2.1c-3.2-0.2-6.2,1.4-8,4
			c-1.8,2.7-2.7,6.6-2.7,11.7c0,5,0.9,8.9,2.8,11.6c1.7,2.7,4.6,4.2,7.8,4.1c2.1,0.1,4.2-0.2,6.2-0.9v-12.7h-5.7L742.3,238.1z"/>
		<path class="st0" d="M806.7,240.4v15.3h-2.5v-35h5.2c3.7,0,6.4,0.8,8.1,2.4s2.6,4,2.6,7.2c0.1,2.1-0.4,4.2-1.4,6
			c-1.1,1.7-2.8,2.9-4.7,3.5l7.5,15.8h-2.8l-7-15.3H806.7z M806.7,238.3h3.5c2,0.1,3.9-0.6,5.3-2c1.2-1.3,1.9-3.3,1.9-5.8
			c0-2.6-0.6-4.5-1.9-5.7c-1.3-1.2-3.3-1.7-6-1.8h-2.8L806.7,238.3z"/>
		<path class="st0" d="M887.5,255.7l-3.3-12.7H875l-3.3,12.7h-2.6l9.1-35h2.6l9.3,35L887.5,255.7z M883.6,240.7l-3.3-13
			c-0.3-1.5-0.6-2.9-0.8-4.2c-0.2,1.4-0.4,2.8-0.7,4.2l-3.2,13H883.6z"/>
		<path class="st0" d="M956.6,230.8c0,3.6-0.9,6.3-2.7,7.9c-1.8,1.7-4.4,2.5-8,2.5h-2.7v14.4h-2.5v-35h5.2c3.7,0,6.4,0.8,8.1,2.4
			S956.6,227.3,956.6,230.8z M943.3,239.1h2.5c3,0,5.1-0.6,6.3-1.9c1.2-1.3,1.9-3.4,1.9-6.4c0-2.8-0.6-4.8-1.9-6.1
			c-1.3-1.2-3.3-1.8-6-1.8h-2.8L943.3,239.1z"/>
		<path class="st0" d="M1027.3,255.7h-2.5v-17.2h-13.2v17.2h-2.5v-35h2.5v15.5h13.2v-15.5h2.5V255.7z"/>
		<path class="st0" d="M1086.9,238.8l6.2-18.1h2.7l-7.6,21.3v13.7h-2.5V242l-7.6-21.3h2.7L1086.9,238.8z"/>
	</g>
	<g id="Layer_12">
		<line class="st1" x1="363" y1="191.9" x2="1126" y2="191.9"/>
		<path d="M363,191.9l23.8-0.4l23.8-0.4l47.7-0.7h572.2c31.8,0.5,63.6,0.9,95.4,1.5c-31.8,0.6-63.6,1-95.4,1.5H458.4l-47.7-0.7
			l-23.8-0.4L363,191.9z"/>
	</g>
	<g id="Illustrious_Light">
		<path d="M366.5,183.6c-1.5-0.2-2.3-0.8-2.3-1.9c0-1.1,0.7-2.1,1.8-2.5c5.6,0,11.3-0.2,17-0.6s11.4-0.9,17-1.4
			c-1.7-13.4-2.9-26.8-3.4-40.1c-0.5-13.4-0.7-26.8-0.7-40.1c-4.8,0.8-9.6,1.4-14.2,1.9s-9.4,0.8-14.2,1c-1.3-0.4-2-1.1-2-2
			c0-1.1,0.6-2,1.5-2.6c2.5,0,5.1-0.1,7.9-0.3c2.7-0.2,6.3-0.6,10.8-1.2c4.5-0.6,10.1-1.4,16.9-2.3c6.8-1,15.4-2.3,25.9-4.1
			c1.5,0,2.4,0.7,2.6,2s-0.5,2.2-2,2.6c-4.8,0.6-9.6,1.2-14.2,2s-9.4,1.6-14.3,2.7c0,13.4,0.3,26.7,0.9,40c0.6,13.3,1.6,26.6,3.2,40
			c6.8-0.8,13.4-1.6,19.9-2.6c6.5-1,13.1-1.9,19.9-2.9c1.5,0,2.4,0.7,2.6,2s-0.6,2.2-2.3,2.6l-19.6,2.9c-6.5,1-13.1,1.8-19.9,2.6
			c0,1.6-0.7,2.4-2,2.5c-1.2,0.2-2.4-0.7-2.6-1.9l-16.9,1.2C377.8,183.4,372.2,183.6,366.5,183.6z"/>
		<path d="M457.6,64.9c0.4-1.1,1.2-2,2.3-2.5c1.2-0.5,1.9,0.1,2.3,1.6c-0.2,18.2-0.5,36.3-1,54.1s-0.8,35.9-1,54.1
			c-0.2,1.2-1.1,2.2-2.3,2.5c-1.3,0.5-2-0.1-2-1.9c0.2-18.2,0.5-36.3,0.9-54.1S457.5,82.9,457.6,64.9z"/>
		<path d="M479.7,64.9c0.4-1.1,1.2-2,2.3-2.5c1.2-0.5,1.9,0.1,2.3,1.6c-0.2,18.2-0.5,36.3-1,54.1s-0.8,35.9-1,54.1
			c-0.2,1.2-1.1,2.2-2.3,2.5c-1.3,0.5-2-0.1-2-1.9c0.2-18.2,0.5-36.3,0.9-54.1S479.5,82.9,479.7,64.9z"/>
		<path d="M497.1,135.9c-0.1-1.3,0.7-2.4,1.9-2.9c1.3-0.6,2.1-0.1,2.5,1.4c0,1.2,0.1,3.5,0.1,7c0.1,3.5,0.3,7,0.7,10.6
			c0.3,3.3,0.9,6.6,1.8,9.9c0.8,3,1.9,4.6,3.5,4.8c1.2,0,2.4-0.7,3.6-2.2c1.4-1.7,2.6-3.5,3.6-5.5c1.2-2.2,2.3-4.6,3.3-7
			c1-2.1,1.8-4.3,2.5-6.5c0-3.3,0-6.3,0.2-9.2c0.1-2.8,0.2-5.2,0.4-7.1c0.4-2.1,1.6-2.9,3.5-2.3c1.7,1.3,2.6,3.7,2.5,7
			c-0.2,3.7-0.8,7.3-1.9,10.8c0,5.6,0.2,11.1,0.7,16.4c0.5,5.3,1.2,9,2.2,10.9c0.2,1.1-0.2,2.2-1.2,2.9c-0.8,0.7-2.1,0.6-2.8-0.2
			c0,0-0.1-0.1-0.1-0.1c-1.1-2.5-1.9-5.1-2.2-7.9c-0.5-3.3-0.8-6.9-1-10.8c-1.8,3.5-3.9,6.7-6.4,9.8c-2.3,2.8-4.6,4.6-6.7,5.2
			c-2.1,0.7-4.1-0.1-6-2.3c-1.8-2.2-3.2-6.5-3.9-12.9c-0.4-3.3-0.6-6.6-0.7-9.9C497.2,142.5,497.1,139.2,497.1,135.9z"/>
		<path d="M574.8,124.2c1.2,1,1.4,1.8,0.7,2.6c-0.8,0.8-1.9,1.2-3,1.2c-2.1-0.4-4.6-0.7-7.4-1c-2.8-0.3-5.6-0.5-8.4-0.7
			c-2.7-0.2-5.3-0.2-8-0.2c-2.1,0-4.1,0.3-6.1,0.7c-0.8,0.2-1.5,0.8-1.9,1.5c-0.3,0.6,0,1.4,1,2.3c2.2,2.2,4.7,4.1,7.3,5.8
			c2.9,1.9,6,3.9,9.2,6c3.2,2.1,6.4,4.1,9.7,6.2c3.3,2.1,6.3,4.3,9,6.4c2.8-0.6,5.6-1,8.4-1.2c2.9-0.2,5.7-0.5,8.4-0.9
			c1.5,0.4,2.1,1.2,1.6,2.3c-0.4,1.1-1.3,2-2.5,2.3l-11.9,1.2c2.5,2.5,3.9,5,4.1,7.4c0.2,2.4-0.4,4.8-1.8,6.8
			c-1.5,2.2-3.4,4.1-5.7,5.5c-2.4,1.6-5.2,2.6-8,3.2c-3,0.6-6,1-9,1c-3.4,0.1-6.8-0.2-10.2-1c-3.1-0.7-6.1-1.9-8.7-3.6
			c-2.4-1.4-4-3.8-4.4-6.5c0-1.5,1.4-3.1,4.2-4.8c3.1-1.8,6.3-3.3,9.6-4.6c3.6-1.5,7.2-2.7,10.8-3.8s6.3-1.8,8-2.2
			c-3.3-2.3-6.9-4.8-10.8-7.3c-3.9-2.5-7.5-4.9-10.9-7.1c-3.4-2.2-6.3-4.3-8.7-6.1s-3.8-3.3-4.2-4.5c-0.6-1.5-0.7-3.2-0.4-4.8
			c0.3-1.6,1.5-2.9,3.6-3.6c2.4-0.7,4.8-1,7.3-1.2c2.9-0.2,6-0.2,9.2-0.2C561.6,121.7,568.3,122.7,574.8,124.2L574.8,124.2z
			 M567,178c6.8-1.5,11-4,12.7-7.4s0-7-5.1-10.9c-3.3,0.5-6.7,1.2-9.9,2.2c-3.7,1.1-7.1,2.2-10.3,3.3c-2.8,1-5.6,2.2-8.3,3.5
			c-2.3,1.2-3.6,2.1-3.8,2.9c0,1.6,1,2.8,2.9,3.8c2.2,1.1,4.6,1.9,7,2.3c2.7,0.6,5.5,0.9,8.3,0.9C562.7,178.6,564.9,178.4,567,178z"
			/>
		<path d="M587.3,139.1c-1.7,0-2.4-0.7-1.9-2c0.4-1.2,1.3-2.2,2.5-2.6c3.9,0,7.7-0.1,11.3-0.4s7.5-0.6,11.3-1
			c0.4-9.9,0.7-19.8,1-29.8c0.3-10,0.6-20,1-30.1c0.3-1.1,1.3-2,2.4-2.4c1.2-0.4,1.9,0.2,2.3,1.8c-0.4,10.1-0.8,20.1-1.3,30
			s-0.7,19.8-0.7,29.7c3.9-0.4,7.6-0.8,11.2-1.3s7.3-0.9,11.2-1.3c1.5,0.2,2.1,0.9,1.8,2c-0.3,1.1-1.2,2-2.3,2.3
			c-3.7,0.4-7.3,0.9-10.9,1.4s-7.2,1.1-10.9,1.4c-0.2,1.3-0.3,3.8-0.4,7.3s-0.2,7.4-0.2,11.8c0,4.4,0.2,8.9,0.6,13.7
			c0.3,4.2,0.9,8.5,1.7,12.7c-0.2,1.2-0.9,2.2-2,2.8c-1.2,0.7-2,0.2-2.6-1.3c-0.8-4.3-1.4-8.6-1.8-12.9c-0.4-4.7-0.6-9.4-0.6-13.8
			c0-4.5,0.1-8.5,0.2-12.1c0.1-3.6,0.2-6.1,0.4-7.4l-11.6,1.2C595.1,138.9,591.2,139.1,587.3,139.1z"/>
		<path d="M645.5,118.7c0-1.3,0.8-2.5,2-2.9c1.3-0.6,2.2-0.1,2.6,1.4v24.9c0,8.4,0.8,16.7,2.4,24.9c1.7-6.4,3.5-11.9,5.2-16.4
			c1.5-4.1,3.8-7.9,6.8-11.1c3.1-3,6.8-5.2,10.9-6.4c4.5-1.5,10.4-2.4,17.7-2.8c1.5,0.4,2.1,1.2,1.8,2.3c-0.3,1.1-1.2,2-2.3,2.3
			c-8.7,0.4-15.1,1.5-19.2,3.4c-3.7,1.5-6.8,4.2-8.9,7.6c-2,3.7-3.5,7.8-4.4,11.9c-1.3,5.6-3.1,11.1-5.4,16.4c-0.4,0.9-1.1,1.6-2,2
			c-1,0.4-1.8-0.1-2.3-1.4c-3.3-8.9-4.9-18.4-5-27.9L645.5,118.7z"/>
		<path d="M706.3,129.8c0.4-1,1.3-1.8,2.3-2.2c1.2-0.5,1.8,0.1,2,1.6c-0.2,7.4-0.5,14.6-0.9,21.7s-0.7,14.3-0.9,21.7
			c-0.3,1.3-1.2,2.3-2.5,2.8c-1.3,0.5-1.9-0.1-1.9-1.9c0.2-7.4,0.5-14.6,0.9-21.8S706.1,137.1,706.3,129.8z M710.4,99.8
			c0.8,1,0.6,2-0.4,3.2s-2.1,1.4-3,0.6c-1.2-0.8-1.2-1.8,0-3.1C708,99.2,709.2,99,710.4,99.8L710.4,99.8z"/>
		<path d="M722.9,152.1c1.3-3.6,3.1-7.1,5.1-10.3c1.7-3,4-5.6,6.8-7.7c-0.4-1,0.2-2.1,1.6-3.5s2.6-1.4,3.3-0.3c2.1,2,3.8,4.4,5.1,7
			c1.3,2.6,2.4,5.4,3.3,8.1c1.6,5.4,2,10,1.3,13.8c-0.5,3.3-1.9,6.4-4.1,8.9c-2,2.1-4.6,3.4-7.4,3.8c-3,0.4-6,0-8.7-1.2
			c-3-1-5.4-3.3-6.5-6.2C721.3,161.3,721.3,157.2,722.9,152.1z M730.1,165.8c4.8,2.3,8.5,2.6,10.9,0.7c2.4-1.8,3.8-4.6,4.2-8.3
			c0.4-3.9,0-7.9-1.2-11.6c-0.8-3.5-2.5-6.7-5-9.3c-2.1,0.6-4.3,2.2-6.4,4.8c-2.1,2.6-3.8,5.5-5.1,8.6c-1.2,2.8-1.8,5.9-1.6,9
			C726.1,162.4,727.7,164.8,730.1,165.8L730.1,165.8z"/>
		<path d="M758.1,135.9c-0.1-1.3,0.7-2.4,1.9-2.9c1.3-0.6,2.1-0.1,2.5,1.4c0,1.2,0,3.5,0.2,7c0.1,3.5,0.3,7,0.7,10.6
			c0.3,3.3,0.9,6.6,1.8,9.9c0.8,3,1.9,4.6,3.5,4.8c1.2,0,2.4-0.7,3.6-2.2c1.4-1.7,2.6-3.6,3.6-5.5c1.2-2.2,2.3-4.6,3.3-7
			c1-2.1,1.8-4.3,2.5-6.5c0-3.3,0-6.3,0.2-9.2c0.1-2.8,0.2-5.2,0.4-7.1c0.4-2.1,1.5-2.9,3.5-2.3c1.7,1.3,2.6,3.7,2.5,7
			c-0.2,3.7-0.8,7.3-1.9,10.8c0,5.6,0.2,11.1,0.7,16.4c0.5,5.3,1.2,9,2.2,10.9c0.2,1.1-0.2,2.2-1.2,2.9c-0.8,0.7-2.1,0.6-2.8-0.2
			c0,0-0.1-0.1-0.1-0.1c-1.1-2.5-1.9-5.1-2.2-7.9c-0.5-3.3-0.8-6.9-1-10.8c-1.8,3.5-3.9,6.7-6.4,9.8c-2.3,2.8-4.6,4.6-6.7,5.2
			c-2.1,0.7-4.1-0.1-6-2.3c-1.8-2.2-3.2-6.5-3.9-12.9c-0.4-3.3-0.6-6.6-0.7-9.9C758.1,142.5,758.1,139.2,758.1,135.9z"/>
		<path d="M835.7,124.2c1.2,1,1.4,1.8,0.7,2.6c-0.8,0.8-1.9,1.2-3.1,1.2c-2.1-0.4-4.6-0.7-7.4-1c-2.8-0.3-5.6-0.5-8.4-0.7
			c-2.7-0.2-5.3-0.2-8-0.2c-2.1,0-4.1,0.3-6.1,0.7c-0.8,0.2-1.5,0.8-1.9,1.5c-0.3,0.6,0,1.4,1,2.3c2.2,2.2,4.7,4.1,7.3,5.8
			c2.9,1.9,6,3.9,9.2,6c3.2,2.1,6.4,4.1,9.7,6.2c3.3,2.1,6.3,4.3,9,6.4c2.8-0.6,5.6-1,8.4-1.2c2.9-0.2,5.7-0.5,8.4-0.9
			c1.5,0.4,2.1,1.2,1.6,2.3c-0.4,1.1-1.3,2-2.5,2.3l-11.9,1.2c2.5,2.5,3.9,5,4.1,7.4c0.2,2.4-0.4,4.8-1.8,6.8
			c-1.5,2.2-3.4,4.1-5.7,5.5c-2.4,1.6-5.2,2.6-8,3.2c-3,0.6-6,1-9,1c-3.4,0.1-6.8-0.2-10.2-1c-3.1-0.7-6.1-1.9-8.7-3.6
			c-2.4-1.4-4-3.8-4.4-6.5c0-1.5,1.4-3.1,4.2-4.8c3.1-1.8,6.3-3.3,9.6-4.6c3.6-1.5,7.2-2.7,10.8-3.8s6.3-1.8,8-2.2
			c-3.3-2.3-6.9-4.8-10.8-7.3c-3.9-2.5-7.5-4.9-10.9-7.1c-3.4-2.2-6.3-4.3-8.7-6.1s-3.8-3.3-4.2-4.5c-0.6-1.5-0.7-3.2-0.4-4.8
			c0.3-1.6,1.5-2.9,3.6-3.6c2.4-0.7,4.8-1,7.3-1.2c2.9-0.2,6-0.2,9.2-0.2C822.5,121.7,829.2,122.7,835.7,124.2L835.7,124.2z
			 M827.9,178c6.8-1.5,11-4,12.7-7.4s0-7-5.1-10.9c-3.3,0.5-6.7,1.2-9.9,2.2c-3.7,1.1-7.1,2.2-10.3,3.3c-2.8,1-5.6,2.2-8.3,3.5
			c-2.3,1.2-3.6,2.1-3.8,2.9c0,1.6,1,2.8,2.9,3.8c2.2,1.1,4.6,1.9,7,2.3c2.7,0.6,5.5,0.9,8.3,0.9C823.5,178.6,825.7,178.4,827.9,178
			z"/>
		<path d="M905.8,89.3c0.4-1.5,1.2-2.2,2.5-2c1.3,0.2,1.9,1.1,1.9,2.6c0,1.2-0.1,3.7-0.2,7.7c-0.1,4-0.2,8.3-0.2,12.9
			c0,4.7-0.1,9-0.2,13.1c-0.1,4.1-0.2,6.7-0.2,7.9c0.2,6,0.5,12.3,1,18.9c0.3,5.9,1.7,11.8,4.2,17.2c2.1,4.7,6,8.3,10.8,10.2
			c4.8,1.9,11.5,1.3,20.1-2c4.3-1.7,8.4-3.7,12.4-6.2c3.8-2.3,7.6-4.6,11.5-6.7c1.5,0,2.5,0.5,2.8,1.6c0.3,1.1-0.3,2.3-1.3,2.8
			c-3.9,2.1-7.8,4.4-11.6,6.7c-3.8,2.3-7.8,4.2-11.9,5.8c-9.1,3.7-16.5,4.6-22.1,2.8c-5.5-1.8-10.2-5.6-13.1-10.6
			c-3.3-5.9-5.5-12.4-6.2-19.2c-1.1-7.7-1.7-15.5-1.8-23.3c-0.1-7.9,0.1-15.5,0.6-22.7S905.6,93.8,905.8,89.3z"/>
		<path d="M979.7,129.8c0.4-1,1.3-1.8,2.3-2.2c1.2-0.5,1.8,0.1,2,1.6c-0.2,7.4-0.5,14.6-0.9,21.7s-0.7,14.3-0.9,21.7
			c-0.3,1.3-1.2,2.3-2.5,2.8c-1.3,0.5-1.9-0.1-1.9-1.9c0.2-7.4,0.5-14.6,0.9-21.8S979.5,137.1,979.7,129.8z M983.8,99.8
			c0.8,1,0.6,2-0.4,3.2s-2.1,1.4-3,0.6c-1.2-0.8-1.2-1.8,0-3.1C981.5,99.2,982.6,99,983.8,99.8L983.8,99.8z"/>
		<path d="M1032.9,147.5c0.4,1.3-0.1,2.7-1.3,3.4c-1.3,0.9-2.2,0.5-2.8-1c-0.6-3.5-1.7-5.9-3.5-7.3c0.9,8.9,2.5,17.7,4.9,26.3
			c2.3,8,4.6,16,6.7,24c3.5-1.2,7.2-2.3,11.2-3.3c3.6-1,7.3-1.7,11.1-2c3-0.3,6-0.1,8.9,0.6c2.3,0.5,4.1,2.1,4.9,4.2
			c0.4,1.2-0.1,2.2-1.3,3.2c-1.3,1-2.3,0.7-3.1-0.9c-0.6-1.7-2.3-2.7-5.1-2.8c-3.1-0.1-6.2,0.2-9.2,0.9c-3.2,0.7-6.4,1.5-9.6,2.5
			c-2.1,0.7-4.2,1.3-6.4,1.8c1.2,3.9,2.5,8.3,4.1,13.2s3,10.2,4.5,15.7c1.5,5.5,2.6,11.2,3.3,16.9c0.8,5.5,1,11.1,0.6,16.7
			c-0.6,7.2-2.3,13.2-5.2,18c-2.8,4.7-6.8,8.7-11.5,11.4c-5,2.9-10.5,4.6-16.2,5.1c-6.5,0.6-13,0.1-19.3-1.5
			c-3.9-0.8-7.7-2-11.4-3.6c-3.5-1.5-6.8-3.6-9.8-6c-2.7-2.2-5-4.9-6.8-8c-1.7-3-2.7-6.3-2.9-9.7c-0.6-8.2,1.1-16.3,5-23.6
			c4-7.6,9.3-14.4,15.6-20.2c6.5-6.1,13.8-11.5,21.5-16c7.2-4.2,14.7-7.9,22.5-10.9c-2.1-6.8-4.2-13.6-6.1-20.4
			c-1.9-6.8-3.6-13.6-5-20.4c-0.9,2.8-2.4,5.3-4.2,7.6c-2.1,2.8-4.6,5.4-7.4,7.6c-4.7,3.7-8.6,4.4-11.9,2c-3.3-2.4-4.4-6.5-3.5-12.5
			c0.4-2.9,1.4-5.8,2.9-8.3c1.6-2.6,3.5-5,5.8-7c2.3-2,4.8-3.7,7.4-5.1c2.4-1.3,5-2.2,7.7-2.6c-0.4-4.9-0.4-9.9,0-14.8
			c0.5-1.1,1.3-1.9,2.3-2.5c1-0.7,2.4-0.5,3.2,0.4c1.3,3,2.2,6.2,2.6,9.4c0.4,3,0.4,6.1,0,9.2
			C1029.9,139.2,1032.2,142.6,1032.9,147.5z M999.8,287.7c5.3,1.3,10.8,1.9,16.3,1.6c4.9-0.2,9.7-1.5,14.1-3.8
			c4.3-2.3,7.9-5.7,10.5-9.7c2.8-4.3,4.6-9.7,5.4-16.3c0.6-4.9,0.6-9.9,0-14.8c-0.6-5.2-1.5-10.3-2.8-15.4
			c-1.3-5.2-2.8-10.4-4.5-15.6c-1.7-5.1-3.4-10.2-4.9-15.3c-5.8,1.7-12.5,4.9-19.9,9.4c-7.6,4.6-14.6,10-21.1,16.1
			c-6.3,5.8-11.7,12.6-16,20.1c-4.1,7.2-5.5,14.4-4.4,21.5c1,5.6,4.1,10.3,9.5,14.1C987.3,283.5,993.4,286.2,999.8,287.7z
			 M1020.1,148.1c-0.4-1.3-0.7-2.6-0.9-3.9c-0.2-1.3-0.4-2.7-0.6-4.2c-6.2,1.7-10.9,4.3-14,7.6c-2.8,2.7-4.8,6.1-5.8,9.9
			c-0.4,1.4-0.5,2.8-0.3,4.2c0.2,1.4,0.7,2.7,1.5,3.8c0.7,1,1.7,1.7,2.9,1.9c1.2,0.2,2.6-0.3,4.4-1.4
			C1010.8,163.1,1015.1,157.2,1020.1,148.1L1020.1,148.1z"/>
		<path d="M1041.4,82c0-1.3,0.8-2.5,2-2.9c1.3-0.6,2.2-0.1,2.6,1.4c0,13.6,0.4,27.1,1.3,40.4s2.1,26.9,3.6,40.4v-0.6
			c0-0.6,0-0.3,0.2,0.7c0.1,0.8,0.2,1.7,0.4,2.5c1-4.1,2-8,3.2-11.8c1.2-3.9,2.9-7.7,4.9-11.2c1.7-3.5,3.6-5.6,5.5-6.2
			c1.8-0.7,3.9-0.5,5.5,0.6c2,1.3,3.8,2.9,5.4,4.8c1.8,2.1,3.6,4.4,5.4,6.8s3.4,4.6,5.1,6.5c1.3,1.6,2.9,2.9,4.8,3.8
			c1.2,0.8,1.4,1.7,0.7,2.6c-0.6,0.9-1.7,1.5-2.8,1.4c-2.6-1.1-4.9-2.7-6.7-4.8c-2.3-2.4-4.5-5-6.5-7.7c-2-2.7-3.9-5.1-5.5-7.3
			c-1.6-2.1-2.8-3.2-3.3-3.2c-4.3,4.2-7.4,9.6-8.7,15.6c-1.3,5.9-2.9,11.9-4.7,17.9c-0.5,1.1-1.6,1.8-2.8,1.8
			c-1.2,0-2.3-0.5-3.1-1.4c-2.5-14.9-4.3-29.9-5.2-44.9C1041.9,112.2,1041.4,97.2,1041.4,82z"/>
		<path d="M1087.3,139.1c-1.7,0-2.4-0.7-1.9-2c0.4-1.2,1.3-2.2,2.5-2.6c3.9,0,7.7-0.1,11.3-0.4c3.7-0.3,7.5-0.6,11.3-1
			c0.4-9.9,0.7-19.8,1-29.8s0.6-20,1-30.1c0.3-1.1,1.3-2,2.4-2.4c1.2-0.4,1.9,0.2,2.3,1.8c-0.4,10.1-0.8,20.1-1.3,30
			c-0.5,9.9-0.7,19.8-0.7,29.7c3.9-0.4,7.6-0.8,11.2-1.3s7.3-0.9,11.2-1.3c1.5,0.2,2.1,0.9,1.8,2c-0.3,1.1-1.2,2-2.3,2.3
			c-3.7,0.4-7.3,0.9-10.9,1.4s-7.2,1.1-10.9,1.4c-0.2,1.3-0.3,3.8-0.4,7.3s-0.2,7.4-0.2,11.8c0,4.4,0.2,8.9,0.6,13.7
			c0.3,4.2,0.9,8.5,1.7,12.7c-0.2,1.2-0.9,2.2-2,2.8c-1.2,0.7-2,0.2-2.6-1.3c-0.8-4.3-1.4-8.6-1.8-12.9c-0.4-4.7-0.6-9.4-0.6-13.8
			s0.1-8.5,0.2-12.1c0.1-3.6,0.2-6.1,0.4-7.4l-11.6,1.2C1095.1,138.9,1091.2,139.1,1087.3,139.1z"/>
		<path class="st0" d="M967.7,263.9c-0.3-7.7,1.4-15.3,5-22.1c4-7.6,9.3-14.4,15.6-20.2c3.7-3.5,7.6-6.7,11.7-9.6l7.4,0.2
			c-5.2,3.6-10.1,7.6-14.6,11.9c-6.3,5.8-11.7,12.6-16,20.1c-3.7,6.6-5.3,13.2-4.6,19.8H967.7z M1045,263.9l1-4.4
			c0.6-4.9,0.6-9.9,0-14.8c-0.6-5.2-1.5-10.3-2.8-15.4c-1.3-5.2-2.8-10.4-4.5-15.6l-0.5-1.6l4.8-0.2c1.3,4.4,2.7,9.1,4,14
			c1.5,5.5,2.6,11.2,3.3,16.9c0.8,5.5,1,11.1,0.6,16.7c-0.1,1.5-0.3,3-0.5,4.4L1045,263.9z"/>
	</g>
	<g id="Logo">
		<path d="M164.5,11.1c84.8,0,153.4,68.8,153.4,153.5c0,61.6-36.9,117.2-93.7,141.2c-78.1,33-168.1-3.6-201.1-81.7
			s3.6-168.1,81.7-201.1C123.7,15.1,144,11,164.5,11.1 M164.5,0C73.6,0,0,73.6,0,164.5S73.6,329,164.5,329S329,255.4,329,164.5
			S255.4,0,164.5,0z"/>
		<path d="M140.3,40.7c38.7,80.4-38,95.5-32.7,145.2c3.2,30.8,30.8,53.1,61.6,49.8s53.1-30.8,49.8-61.6
			C208.9,78.8,127.1,13.2,140.3,40.7z M167.6,216.1c-21.4,0.6-39.4-16.2-40-37.7c0,0,0,0,0,0c-1-34.7,50.6-57.4,28.2-115
			c-7.8-20,47.6,46.2,49.5,112.8C205.9,197.6,189.1,215.5,167.6,216.1z"/>
		<path d="M139.3,182.8c-1.5,14.6,9,27.6,23.6,29.2s27.6-9,29.2-23.6l0,0c2.5-23.6-33.3-31.6-15-69.7
			C183.4,105.5,144.1,137.6,139.3,182.8z M145.8,183.8c0.9-31.5,27.1-62.9,23.4-53.4c-10.6,27.3,13.8,38.1,13.3,54.5
			c-0.1,10.2-8.5,18.3-18.6,18.2c-10.2-0.1-18.3-8.5-18.2-18.6C145.8,184.2,145.8,184,145.8,183.8z"/>
		<path d="M160.5,263.6c-1.5-6.9-1.8-6.8-2.9-9.4c-2-4.4-15.6-9.7-24-15.1c-5.2-3.3-11.9-7.9-18.1-12.1
			c-9.2-6.4-16.6-15.1-21.5-25.2c-2-4-4-5.8-6.1-7.9c-3.3-3.3-5.9-4-9.3-3c-9.5-11-17.2-12.8-20.7-13.1c-4.6-10.7-12-11.5-15.6-11.2
			c-2.5-3.4-5.3-6.5-8.3-9.5c-10.2-3.9-5.7,9.6-3.3,15c2.5,5.7,11.1,22.4,13.5,28.7c1.4,3.6,6,9.3,6,9.3c12,12,18.7,21.2,25.2,34.8
			l0,0c0.5,1.1,1.3,2.1,2.2,2.9c5.3,4.7,32.4,29.4,37.8,32.3c6.3,3.3,3.9,42.8,3.9,42.8h49.4C168.5,310,162.9,275,160.5,263.6z"/>
		<path class="st0" d="M109.2,250.6c-2.2-1-4.3-2.3-6.2-3.7c-2-1.4-3.7-3.2-5.1-5.3c-0.6-1.1-1.2-2.2-1.6-3.3c-0.4-1.1-1-2.1-1.6-3
			c-0.7-0.9-1.5-1.7-2.3-2.4c-0.9-0.8-1.8-1.6-2.7-2.4c-3.6-3.3-6.7-7-9.3-11.2c-2.6-4.1-4.5-8.6-5.9-13.2l0.1,0.2
			c-2.2-3-3-6.7-2.3-10.3c0.4-1.8,1.5-3.4,3.1-4.3c1.5-1,3.2-1.4,5-1.2c-1.7,0-3.4,0.6-4.7,1.6c-1.4,0.9-2.3,2.4-2.5,4.1
			c-0.2,1.6-0.1,3.3,0.4,4.9c0.5,1.6,1.2,3.1,2.2,4.4l0.1,0.1v0.1c1.5,4.5,3.5,8.7,6.1,12.6c2.6,3.9,5.6,7.5,9,10.8
			c0.8,0.8,1.7,1.6,2.6,2.4c1,0.8,1.8,1.8,2.6,2.8c1.5,2.2,2,4.6,3.1,6.6c1.2,2,2.7,3.8,4.4,5.3
			C105.3,247.8,107.2,249.3,109.2,250.6z"/>
		<path class="st0" d="M41.5,165.4c1.3,2.1,2.5,4.3,3.7,6.5l3.5,6.6c1.2,2.2,2.3,4.4,3.4,6.7c0.5,1.1,1.1,2.3,1.6,3.4
			c0.5,1.2,1,2.4,1.4,3.6l-0.4-0.4c1.1,0.5,2.2,1.2,3.2,1.9c1,0.7,1.9,1.4,2.9,2.2c1.9,1.5,3.7,3,5.5,4.6c1.8,1.6,3.6,3.2,5.3,4.8
			s3.4,3.3,5,5.1c-1.8-1.6-3.6-3.1-5.4-4.6s-3.6-3.1-5.5-4.5s-3.7-3-5.6-4.4c-0.9-0.7-1.9-1.4-2.8-2.1c-0.9-0.7-1.9-1.2-2.9-1.7
			l-0.3-0.1l-0.1-0.3c-0.8-2.3-1.8-4.6-2.9-6.8l-3.1-6.7l-3.2-6.8C43.6,169.9,42.5,167.6,41.5,165.4z"/>
		<path class="st0" d="M57.5,177.4c1.9,1.6,3.7,3.3,5.4,5.1c0.8,0.9,1.7,1.9,2.4,2.9c0.8,1,1.5,2.1,1.9,3.4l-0.2-0.2
			c2.2,1.9,4.2,3.9,6.2,6c-2.4-1.6-4.7-3.3-6.9-5.2l-0.1-0.1l-0.1-0.2c-0.5-1.1-1.1-2.1-1.8-3c-0.7-1-1.5-2-2.2-2.9L57.5,177.4z"/>
		<path d="M165.7,263.6c1.5-6.9,1.8-6.8,2.9-9.4c2-4.4,15.6-9.7,24-15.1c5.2-3.3,11.9-7.9,18.1-12.1c9.2-6.4,16.6-15.1,21.5-25.2
			c2-4,4-5.8,6.1-7.9c3.3-3.3,5.9-4,9.3-3c9.5-11,17.2-12.8,20.7-13.1c4.6-10.7,12-11.5,15.6-11.2c2.5-3.4,5.3-6.5,8.3-9.5
			c10.2-3.9,5.7,9.6,3.3,15c-2.5,5.7-11.1,22.4-13.5,28.7c-1.4,3.6-6,9.3-6,9.3c-12,12-18.7,21.2-25.2,34.8l0,0
			c-0.5,1.1-1.3,2.1-2.2,2.9c-5.3,4.7-32.4,29.4-37.8,32.3c-6.3,3.3-3.9,42.8-3.9,42.8h-49.3C157.6,310,163.2,275,165.7,263.6z"/>
		<path class="st0" d="M217,250.6c2-1.3,3.9-2.8,5.6-4.4c1.7-1.5,3.2-3.3,4.4-5.3c1.1-2,1.6-4.4,3.1-6.6c0.7-1,1.6-2,2.6-2.8
			c0.9-0.8,1.8-1.5,2.6-2.4c3.4-3.2,6.4-6.8,9-10.8c2.5-3.9,4.6-8.2,6.1-12.6v-0.1l0.1-0.1c1-1.3,1.8-2.8,2.2-4.4
			c0.5-1.6,0.6-3.3,0.4-4.9c-0.3-1.6-1.2-3.1-2.5-4.1c-1.4-1-3-1.6-4.7-1.6c1.8-0.2,3.5,0.2,5,1.2c1.6,0.9,2.7,2.5,3.1,4.3
			c0.7,3.6-0.1,7.3-2.3,10.3l0.1-0.2c-1.3,4.7-3.3,9.1-5.9,13.2c-2.6,4.1-5.7,7.9-9.3,11.2c-0.9,0.8-1.8,1.6-2.7,2.4
			c-0.9,0.7-1.7,1.5-2.4,2.4c-0.7,0.9-1.2,1.9-1.6,3c-0.5,1.1-1,2.2-1.6,3.3c-1.4,2.1-3.1,3.8-5.1,5.3
			C221.2,248.4,219.2,249.6,217,250.6z"/>
		<path class="st0" d="M284.6,165.4c-1,2.3-2.1,4.5-3.1,6.8l-3.2,6.8l-3.2,6.8c-1.1,2.2-2,4.5-2.9,6.8l-0.1,0.3l-0.3,0.1
			c-1,0.5-2,1.1-2.9,1.7c-1,0.7-1.9,1.4-2.9,2.1c-1.9,1.4-3.7,2.9-5.6,4.4s-3.7,3-5.5,4.5s-3.6,3.1-5.4,4.6c1.6-1.8,3.3-3.4,5-5.1
			s3.5-3.2,5.3-4.8s3.6-3.1,5.5-4.6c0.9-0.8,1.9-1.5,2.9-2.2c1-0.8,2.1-1.4,3.2-1.9l-0.4,0.4c0.4-1.2,0.9-2.4,1.4-3.6
			c0.5-1.1,1-2.3,1.6-3.4c1.1-2.3,2.2-4.5,3.4-6.7l3.5-6.6C282.1,169.7,283.3,167.5,284.6,165.4z"/>
		<path class="st0" d="M268.6,177.4l-4.6,5.8c-0.8,1-1.5,1.9-2.2,2.9c-0.7,0.9-1.3,1.9-1.8,3l-0.1,0.2l-0.1,0.1
			c-2.2,1.9-4.5,3.6-6.9,5.2c1.9-2.1,4-4.1,6.2-6l-0.2,0.2c0.5-1.2,1.1-2.3,1.9-3.4c0.7-1,1.6-2,2.4-2.9
			C264.9,180.7,266.7,179,268.6,177.4z"/>
	</g>
	<g id="iFlame">
		<path d="M971.3,16.4c17.7,36.9-17,44.7-14.6,67.6c1.3,14.1,13.8,24.6,27.9,23.3c14.1-1.3,24.6-13.8,23.3-27.9c0-0.3,0-0.5-0.1-0.8
			C1003.2,34.7,965.1,3.6,971.3,16.4z M984.3,97.8c-9.8,0.3-18-7.5-18.3-17.3c-0.5-15.9,23.2-26.3,12.9-52.8
			c-3.6-9.2,21.8,21.2,22.7,51.8C1001.9,89.3,994.2,97.6,984.3,97.8C984.3,97.8,984.3,97.8,984.3,97.8L984.3,97.8z"/>
		<path d="M972.3,80.6c-0.8,6.7,3.9,12.8,10.6,13.6c6.7,0.8,12.8-3.9,13.6-10.6c0-0.2,0-0.3,0.1-0.5c1.1-10.8-15.3-14.5-6.9-32
			C992.5,45,974.5,59.8,972.3,80.6z M975.3,81c0.4-14.5,12.5-28.9,10.8-24.5c-4.9,12.5,6.3,17.5,6.1,25c-0.1,4.7-4,8.4-8.7,8.2
			C978.8,89.6,975.1,85.7,975.3,81L975.3,81z"/>
	</g>
</g>
</svg>
